<?xml version="1.0" encoding="UTF-8" standalone="no"?>
<svg
   xmlns:dc="http://purl.org/dc/elements/1.1/"
   xmlns:cc="http://creativecommons.org/ns#"
   xmlns:rdf="http://www.w3.org/1999/02/22-rdf-syntax-ns#"
   xmlns:svg="http://www.w3.org/2000/svg"
   xmlns="http://www.w3.org/2000/svg"
   xml:space="preserve"
   enable-background="new 0 0 32 32"
   viewBox="0 0 450 150"
   height="150"
   width="450"
   y="0px"
   x="0px"
   id="Layer_1"
   version="1.1"><metadata
     id="metadata7"><rdf:RDF><cc:Work
         rdf:about=""><dc:format>image/svg+xml</dc:format><dc:type
           rdf:resource="http://purl.org/dc/dcmitype/StillImage" /><dc:title></dc:title></cc:Work></rdf:RDF></metadata><defs
     id="defs5"><marker
       orient="auto"
       refY="0"
       refX="0"
       id="Arrow2Mend-5"
       style="overflow:visible"><path
         id="path45132-1"
         style="font-size:12px;fill-rule:evenodd;stroke-width:0.625;stroke-linejoin:round"
         d="M 8.7185878,4.0337352 -2.2072895,0.01601326 8.7185884,-4.0017078 c -1.7454984,2.3720609 -1.7354408,5.6174519 -6e-7,8.035443 z"
         transform="scale(-0.6)" /></marker><marker
       orient="auto"
       refY="0"
       refX="0"
       id="DotM-00"
       style="overflow:visible"><path
         id="path14329-2"
         d="m -2.5,-1 c 0,2.76 -2.24,5 -5,5 -2.76,0 -5,-2.24 -5,-5 0,-2.76 2.24,-5 5,-5 2.76,0 5,2.24 5,5 z"
         style="fill-rule:evenodd;stroke:#000000;stroke-width:1.00000003pt;marker-start:none;marker-end:none"
         transform="matrix(0.4,0,0,0.4,2.96,0.4)" /></marker><marker
       orient="auto"
       refY="0"
       refX="0"
       id="Arrow2Mend-07"
       style="overflow:visible"><path
         id="path45132-31"
         style="font-size:12px;fill-rule:evenodd;stroke-width:0.625;stroke-linejoin:round"
         d="M 8.7185878,4.0337352 -2.2072895,0.01601326 8.7185884,-4.0017078 c -1.7454984,2.3720609 -1.7354408,5.6174519 -6e-7,8.035443 z"
         transform="scale(-0.6)" /></marker><marker
       orient="auto"
       refY="0"
       refX="0"
       id="DotM-0"
       style="overflow:visible"><path
         id="path14329-94"
         d="m -2.5,-1 c 0,2.76 -2.24,5 -5,5 -2.76,0 -5,-2.24 -5,-5 0,-2.76 2.24,-5 5,-5 2.76,0 5,2.24 5,5 z"
         style="fill-rule:evenodd;stroke:#000000;stroke-width:1.00000003pt;marker-start:none;marker-end:none"
         transform="matrix(0.4,0,0,0.4,2.96,0.4)" /></marker><marker
       orient="auto"
       refY="0"
       refX="0"
       id="Arrow2Mend-6"
       style="overflow:visible"><path
         id="path45132-8"
         style="font-size:12px;fill-rule:evenodd;stroke-width:0.625;stroke-linejoin:round"
         d="M 8.7185878,4.0337352 -2.2072895,0.01601326 8.7185884,-4.0017078 c -1.7454984,2.3720609 -1.7354408,5.6174519 -6e-7,8.035443 z"
         transform="scale(-0.6)" /></marker><marker
       orient="auto"
       refY="0"
       refX="0"
       id="DotM-8"
       style="overflow:visible"><path
         id="path14329-91"
         d="m -2.5,-1 c 0,2.76 -2.24,5 -5,5 -2.76,0 -5,-2.24 -5,-5 0,-2.76 2.24,-5 5,-5 2.76,0 5,2.24 5,5 z"
         style="fill-rule:evenodd;stroke:#000000;stroke-width:1.00000003pt;marker-start:none;marker-end:none"
         transform="matrix(0.4,0,0,0.4,2.96,0.4)" /></marker><clipPath
       id="clipPath3169-2"
       clipPathUnits="userSpaceOnUse"><rect
         y="105.34417"
         x="48.992397"
         height="428.80975"
         width="748.77557"
         id="rect3171-7"
         style="fill:#f5f5f4;fill-opacity:1;stroke:#888a85;stroke-width:2;stroke-miterlimit:4;stroke-dasharray:none;stroke-dashoffset:0;stroke-opacity:1" /></clipPath><clipPath
       clipPathUnits="userSpaceOnUse"
       id="clipPath22-7"><path
         d="M 0,792 H 1224 V 0 H 0 Z"
         id="path24-2" /></clipPath><clipPath
       id="clipPath6483-7"
       clipPathUnits="userSpaceOnUse"><rect
         y="187.65627"
         x="67.578148"
         height="280"
         width="548"
         id="rect6485-5"
         style="fill:#ffffff;fill-opacity:1;stroke:none" /></clipPath><clipPath
       clipPathUnits="userSpaceOnUse"
       id="clipPath10152"><rect
         style="fill:#555753;fill-opacity:1;stroke:#555753;stroke-width:1.83322382;stroke-miterlimit:4;stroke-dasharray:none;stroke-dashoffset:0;stroke-opacity:1"
         id="rect10154"
         width="718.58722"
         height="140.17392"
         x="-37.134048"
         y="754.14667" /></clipPath><marker
       orient="auto"
       refY="0"
       refX="0"
       id="Arrow2Mend-0"
       style="overflow:visible"><path
         id="path45132-982"
         style="font-size:12px;fill-rule:evenodd;stroke-width:0.625;stroke-linejoin:round"
         d="M 8.7185878,4.0337352 -2.2072895,0.01601326 8.7185884,-4.0017078 c -1.7454984,2.3720609 -1.7354408,5.6174519 -6e-7,8.035443 z"
         transform="scale(-0.6)" /></marker><marker
       orient="auto"
       refY="0"
       refX="0"
       id="DotM-2"
       style="overflow:visible"><path
         id="path14329-95"
         d="m -2.5,-1 c 0,2.76 -2.24,5 -5,5 -2.76,0 -5,-2.24 -5,-5 0,-2.76 2.24,-5 5,-5 2.76,0 5,2.24 5,5 z"
         style="fill-rule:evenodd;stroke:#000000;stroke-width:1.00000003pt;marker-start:none;marker-end:none"
         transform="matrix(0.4,0,0,0.4,2.96,0.4)" /></marker><marker
       orient="auto"
       refY="0"
       refX="0"
       id="Arrow2Mend-2"
       style="overflow:visible"><path
         id="path45132-98"
         style="font-size:12px;fill-rule:evenodd;stroke-width:0.625;stroke-linejoin:round"
         d="M 8.7185878,4.0337352 -2.2072895,0.01601326 8.7185884,-4.0017078 c -1.7454984,2.3720609 -1.7354408,5.6174519 -6e-7,8.035443 z"
         transform="scale(-0.6)" /></marker><marker
       orient="auto"
       refY="0"
       refX="0"
       id="DotM-5"
       style="overflow:visible"><path
         id="path14329-1"
         d="m -2.5,-1 c 0,2.76 -2.24,5 -5,5 -2.76,0 -5,-2.24 -5,-5 0,-2.76 2.24,-5 5,-5 2.76,0 5,2.24 5,5 z"
         style="fill-rule:evenodd;stroke:#000000;stroke-width:1.00000003pt;marker-start:none;marker-end:none"
         transform="matrix(0.4,0,0,0.4,2.96,0.4)" /></marker><marker
       orient="auto"
       refY="0"
       refX="0"
       id="Arrow2Mend-75"
       style="overflow:visible"><path
         id="path45132-9"
         style="font-size:12px;fill-rule:evenodd;stroke-width:0.625;stroke-linejoin:round"
         d="M 8.7185878,4.0337352 -2.2072895,0.01601326 8.7185884,-4.0017078 c -1.7454984,2.3720609 -1.7354408,5.6174519 -6e-7,8.035443 z"
         transform="scale(-0.6)" /></marker><marker
       orient="auto"
       refY="0"
       refX="0"
       id="DotM-466"
       style="overflow:visible"><path
         id="path14329-32"
         d="m -2.5,-1 c 0,2.76 -2.24,5 -5,5 -2.76,0 -5,-2.24 -5,-5 0,-2.76 2.24,-5 5,-5 2.76,0 5,2.24 5,5 z"
         style="fill-rule:evenodd;stroke:#000000;stroke-width:1.00000003pt;marker-start:none;marker-end:none"
         transform="matrix(0.4,0,0,0.4,2.96,0.4)" /></marker><marker
       orient="auto"
       refY="0"
       refX="0"
       id="marker32938"
       style="overflow:visible"><path
         id="path32940"
         style="font-size:12px;fill-rule:evenodd;stroke-width:0.625;stroke-linejoin:round"
         d="M 8.7185878,4.0337352 -2.2072895,0.01601326 8.7185884,-4.0017078 c -1.7454984,2.3720609 -1.7354408,5.6174519 -6e-7,8.035443 z"
         transform="scale(-0.6)" /></marker><marker
       orient="auto"
       refY="0"
       refX="0"
       id="marker32934"
       style="overflow:visible"><path
         id="path32936"
         d="m -2.5,-1 c 0,2.76 -2.24,5 -5,5 -2.76,0 -5,-2.24 -5,-5 0,-2.76 2.24,-5 5,-5 2.76,0 5,2.24 5,5 z"
         style="fill-rule:evenodd;stroke:#000000;stroke-width:1.00000003pt;marker-start:none;marker-end:none"
         transform="matrix(0.4,0,0,0.4,2.96,0.4)" /></marker><marker
       orient="auto"
       refY="0"
       refX="0"
       id="Arrow2Mend-7"
       style="overflow:visible"><path
         id="path45132-2"
         style="font-size:12px;fill-rule:evenodd;stroke-width:0.625;stroke-linejoin:round"
         d="M 8.7185878,4.0337352 -2.2072895,0.01601326 8.7185884,-4.0017078 c -1.7454984,2.3720609 -1.7354408,5.6174519 -6e-7,8.035443 z"
         transform="scale(-0.6)" /></marker><marker
       orient="auto"
       refY="0"
       refX="0"
       id="DotM-46"
       style="overflow:visible"><path
         id="path14329-9"
         d="m -2.5,-1 c 0,2.76 -2.24,5 -5,5 -2.76,0 -5,-2.24 -5,-5 0,-2.76 2.24,-5 5,-5 2.76,0 5,2.24 5,5 z"
         style="fill-rule:evenodd;stroke:#000000;stroke-width:1.00000003pt;marker-start:none;marker-end:none"
         transform="matrix(0.4,0,0,0.4,2.96,0.4)" /></marker><marker
       orient="auto"
       refY="0"
       refX="0"
       id="Arrow2Mend-3"
       style="overflow:visible"><path
         id="path45132-3"
         style="font-size:12px;fill-rule:evenodd;stroke-width:0.625;stroke-linejoin:round"
         d="M 8.7185878,4.0337352 -2.2072895,0.01601326 8.7185884,-4.0017078 c -1.7454984,2.3720609 -1.7354408,5.6174519 -6e-7,8.035443 z"
         transform="scale(-0.6)" /></marker><marker
       orient="auto"
       refY="0"
       refX="0"
       id="DotM-42"
       style="overflow:visible"><path
         id="path14329-3"
         d="m -2.5,-1 c 0,2.76 -2.24,5 -5,5 -2.76,0 -5,-2.24 -5,-5 0,-2.76 2.24,-5 5,-5 2.76,0 5,2.24 5,5 z"
         style="fill-rule:evenodd;stroke:#000000;stroke-width:1.00000003pt;marker-start:none;marker-end:none"
         transform="matrix(0.4,0,0,0.4,2.96,0.4)" /></marker><marker
       orient="auto"
       refY="0"
       refX="0"
       id="Arrow2Mend-9"
       style="overflow:visible"><path
         id="path45132-4"
         style="font-size:12px;fill-rule:evenodd;stroke-width:0.625;stroke-linejoin:round"
         d="M 8.7185878,4.0337352 -2.2072895,0.01601326 8.7185884,-4.0017078 c -1.7454984,2.3720609 -1.7354408,5.6174519 -6e-7,8.035443 z"
         transform="scale(-0.6)" /></marker><marker
       orient="auto"
       refY="0"
       refX="0"
       id="DotM-4"
       style="overflow:visible"><path
         id="path14329-8"
         d="m -2.5,-1 c 0,2.76 -2.24,5 -5,5 -2.76,0 -5,-2.24 -5,-5 0,-2.76 2.24,-5 5,-5 2.76,0 5,2.24 5,5 z"
         style="fill-rule:evenodd;stroke:#000000;stroke-width:1.00000003pt;marker-start:none;marker-end:none"
         transform="matrix(0.4,0,0,0.4,2.96,0.4)" /></marker><clipPath
       clipPathUnits="userSpaceOnUse"
       id="clipPath6483-5"><rect
         style="fill:#ffffff;fill-opacity:1;stroke:none"
         id="rect6485-2"
         width="548"
         height="280"
         x="67.578148"
         y="187.65627" /></clipPath><clipPath
       clipPathUnits="userSpaceOnUse"
       id="clipPath6483-1-7-3-0"><rect
         style="fill:#ffffff;fill-opacity:1;stroke:none"
         id="rect6485-6-4-5-6"
         width="548"
         height="280"
         x="67.578148"
         y="187.65627" /></clipPath><marker
       orient="auto"
       refY="0"
       refX="0"
       id="Arrow2Lend-0"
       style="overflow:visible"><path
         id="path45126-6"
         style="font-size:12px;fill-rule:evenodd;stroke-width:0.625;stroke-linejoin:round"
         d="M 8.7185878,4.0337352 -2.2072895,0.01601326 8.7185884,-4.0017078 c -1.7454984,2.3720609 -1.7354408,5.6174519 -6e-7,8.035443 z"
         transform="matrix(-1.1,0,0,-1.1,-1.1,0)" /></marker><clipPath
       clipPathUnits="userSpaceOnUse"
       id="clipPath6483-1-7-3-9"><rect
         style="fill:#ffffff;fill-opacity:1;stroke:none"
         id="rect6485-6-4-5-8"
         width="548"
         height="280"
         x="67.578148"
         y="187.65627" /></clipPath><clipPath
       clipPathUnits="userSpaceOnUse"
       id="clipPath6483-1-7-3"><rect
         style="fill:#ffffff;fill-opacity:1;stroke:none"
         id="rect6485-6-4-5"
         width="548"
         height="280"
         x="67.578148"
         y="187.65627" /></clipPath><clipPath
       clipPathUnits="userSpaceOnUse"
       id="clipPath6483-1-7"><rect
         style="fill:#ffffff;fill-opacity:1;stroke:none"
         id="rect6485-6-4"
         width="548"
         height="280"
         x="67.578148"
         y="187.65627" /></clipPath><clipPath
       clipPathUnits="userSpaceOnUse"
       id="clipPath6483-1"><rect
         style="fill:#ffffff;fill-opacity:1;stroke:none"
         id="rect6485-6"
         width="548"
         height="280"
         x="67.578148"
         y="187.65627" /></clipPath><clipPath
       clipPathUnits="userSpaceOnUse"
       id="clipPath6483"><rect
         style="fill:#ffffff;fill-opacity:1;stroke:none"
         id="rect6485"
         width="548"
         height="280"
         x="67.578148"
         y="187.65627" /></clipPath><clipPath
       id="clipPath22"
       clipPathUnits="userSpaceOnUse"><path
         id="path24"
         d="M 0,792 H 1224 V 0 H 0 Z" /></clipPath><clipPath
       clipPathUnits="userSpaceOnUse"
       id="clipPath3169"><rect
         style="fill:#f5f5f4;fill-opacity:1;stroke:#888a85;stroke-width:2;stroke-miterlimit:4;stroke-dasharray:none;stroke-dashoffset:0;stroke-opacity:1"
         id="rect3171"
         width="748.77557"
         height="428.80975"
         x="48.992397"
         y="105.34417" /></clipPath><marker
       orient="auto"
       refY="0"
       refX="0"
       id="Arrow2Lend"
       style="overflow:visible"><path
         id="path45126"
         style="font-size:12px;fill-rule:evenodd;stroke-width:0.625;stroke-linejoin:round"
         d="M 8.7185878,4.0337352 -2.2072895,0.01601326 8.7185884,-4.0017078 c -1.7454984,2.3720609 -1.7354408,5.6174519 -6e-7,8.035443 z"
         transform="matrix(-1.1,0,0,-1.1,-1.1,0)" /></marker><marker
       orient="auto"
       refY="0"
       refX="0"
       id="Arrow2Mend"
       style="overflow:visible"><path
         id="path45132"
         style="font-size:12px;fill-rule:evenodd;stroke-width:0.625;stroke-linejoin:round"
         d="M 8.7185878,4.0337352 -2.2072895,0.01601326 8.7185884,-4.0017078 c -1.7454984,2.3720609 -1.7354408,5.6174519 -6e-7,8.035443 z"
         transform="scale(-0.6)" /></marker><marker
       orient="auto"
       refY="0"
       refX="0"
       id="DotL"
       style="overflow:visible"><path
         id="path14326"
         d="m -2.5,-1 c 0,2.76 -2.24,5 -5,5 -2.76,0 -5,-2.24 -5,-5 0,-2.76 2.24,-5 5,-5 2.76,0 5,2.24 5,5 z"
         style="fill-rule:evenodd;stroke:#000000;stroke-width:1.00000003pt;marker-start:none;marker-end:none"
         transform="matrix(0.8,0,0,0.8,5.92,0.8)" /></marker><marker
       orient="auto"
       refY="0"
       refX="0"
       id="DotM"
       style="overflow:visible"><path
         id="path14329"
         d="m -2.5,-1 c 0,2.76 -2.24,5 -5,5 -2.76,0 -5,-2.24 -5,-5 0,-2.76 2.24,-5 5,-5 2.76,0 5,2.24 5,5 z"
         style="fill-rule:evenodd;stroke:#000000;stroke-width:1.00000003pt;marker-start:none;marker-end:none"
         transform="matrix(0.4,0,0,0.4,2.96,0.4)" /></marker></defs><g
     id="flowRoot1188"
     style="font-style:normal;font-variant:normal;font-weight:normal;font-stretch:normal;font-size:42.52358246px;line-height:125%;font-family:Underdog;-inkscape-font-specification:'Underdog, Normal';font-variant-ligatures:normal;font-variant-caps:normal;font-variant-numeric:normal;font-feature-settings:normal;text-align:start;letter-spacing:0px;word-spacing:0px;writing-mode:lr-tb;text-anchor:start;fill:#00838f;fill-opacity:1;stroke:none;stroke-width:1px;stroke-linecap:butt;stroke-linejoin:miter;stroke-opacity:1"
     transform="matrix(3.2202482,0,0,3.5301604,-145.77692,-80.426448)"
     aria-label="Syna"><path
       id="path17863"
       style=""
       d="m 106.22222,24.759866 2.67899,1.828514 1.19066,-1.658419 2.25375,1.78599 -3.99722,4.805165 -1.61589,-1.488325 -2.04114,-2.636462 -6.378533,1.020566 -3.359363,3.401886 2.593939,4.805165 11.013607,2.891604 2.59394,3.189268 -0.76543,8.292099 -8.80238,4.082264 -7.781813,-2.126179 -1.318231,2.126179 -2.593938,-0.59533 2.593938,-5.69816 2.168703,0.637853 6.718721,2.168703 6.63368,-2.636462 -1.2757,-6.591155 -13.054743,-2.678986 -2.423845,-8.887429 4.5075,-5.272924 z" /><path
       id="path17865"
       style=""
       d="m 132.71973,34.965526 -9.015,25.981909 -4.89021,2.083656 -5.31545,-2.764033 1.14814,-2.806557 4.46497,2.806557 2.3388,-0.637854 1.23319,-3.486934 1.10561,-3.742075 -2.21123,1.19066 -5.74068,-17.774857 -1.91356,-0.170094 -0.51029,-1.785991 5.57059,-0.510283 1.91356,8.802382 3.2318,9.312664 5.27292,-16.669244 -1.95608,-0.59533 0.0425,-1.105613 7.31406,-0.04252 0.25514,1.06309 z" /><path
       id="path17867"
       style=""
       d="m 162.77394,51.677294 -7.10144,3.571981 -2.55141,-1.318231 V 41.003875 l -1.31823,-3.869646 -3.2318,-0.340189 -4.89021,7.101439 v 8.717334 l 2.29627,0.680377 -0.34018,1.615896 -7.7393,-0.340188 -0.34018,-0.935519 2.25374,-1.020566 V 37.134229 l -2.84908,-1.615896 2.21123,-2.934127 3.91217,4.209834 0.59533,3.91217 4.25236,-6.803773 5.48554,0.297665 3.23179,5.825731 -0.68037,11.353796 0.68037,0.59533 3.86965,-2.891603 z" /><path
       id="path17869"
       style=""
       d="m 172.75303,43.682861 -4.76264,3.189268 -0.12757,4.762642 1.70094,0.892995 q 0.85047,-0.04252 1.57337,-0.08505 0.59533,-0.04252 1.06309,-0.08505 0.51028,-0.08505 0.51028,-0.170094 0,0 0.1701,-0.255141 0.17009,-0.255142 0.42523,-0.637854 0.29767,-0.425236 0.63786,-0.892995 0.34019,-0.510283 0.7229,-1.020566 0.85047,-1.190661 1.99861,-2.72151 l -0.29767,-3.104221 z m -2.72151,-11.481368 9.61033,2.25375 0.17009,17.477193 3.61451,0.255141 0.0425,1.956085 -5.27292,0.510283 -1.78599,-3.742075 -2.21123,3.486933 -7.18649,1.360755 -2.63646,-3.189269 0.1701,-6.463584 7.27153,-4.720118 4.5075,-0.59533 0.34019,-4.63507 -7.10144,-0.935519 -2.08366,3.614504 -2.33879,-2.466368 0.42523,-1.063089 z" /></g><flowRoot
     transform="translate(0,50)"
     style="font-style:normal;font-weight:normal;font-size:40px;line-height:125%;font-family:Sans;letter-spacing:0px;word-spacing:0px;fill:#000000;fill-opacity:1;stroke:none;stroke-width:1px;stroke-linecap:butt;stroke-linejoin:miter;stroke-opacity:1"
     id="flowRoot1196"
     xml:space="preserve"><flowRegion
       id="flowRegion1198"><rect
         y="110.07627"
         x="103.41437"
         height="41.100582"
         width="44.812893"
         id="rect1200" /></flowRegion><flowPara
       id="flowPara1202">By </flowPara></flowRoot><g
     transform="translate(0,50)"
     id="layer1"><g
       transform="matrix(1.1486012,0,0,1.1486012,-2.602774,5.7838513)"
       id="g3286"><path
         id="path930"
         style="opacity:1;fill:#006069;fill-opacity:1;stroke:#000000;stroke-width:0.0739221;stroke-linecap:butt;stroke-linejoin:miter;stroke-miterlimit:4;stroke-dasharray:none;stroke-opacity:1"
         d="m 101.97979,66.730047 c 0,19.978541 -16.195798,36.174343 -36.174342,36.174343 -19.978532,0 -36.174343,-16.195802 -36.174343,-36.174343 0,-19.978536 16.195811,-36.174339 36.174343,-36.174339 19.978544,0 36.174342,16.195803 36.174342,36.174339 z M 57.62449,7.5470233 c -1.959903,0 -3.537722,1.5778235 -3.537722,3.5377177 v 8.991686 c -4.576126,1.136015 -8.980629,2.964392 -13.119021,5.453975 l -6.338406,-6.338401 c -1.385847,-1.385857 -3.625908,-1.385857 -5.011766,0 L 18.120009,30.689565 c -1.385861,1.385858 -1.385861,3.625908 0,5.011766 l 6.338401,6.338417 c -2.470107,4.126294 -4.18288,8.580737 -5.306573,13.119013 h -8.991691 c -1.9598946,0 -3.5377171,1.577821 -3.5377171,3.537704 v 16.214533 c 0,1.959898 1.5778225,3.537721 3.5377171,3.537721 h 8.844288 c 1.135824,4.580205 2.962294,8.977151 5.453976,13.119007 l -6.338401,6.338426 c -1.385861,1.385837 -1.385861,3.625888 0,5.011748 l 11.497566,11.49756 c 1.385858,1.38589 3.625919,1.38589 5.011766,0 l 6.338406,-6.3384 c 4.156457,2.50685 8.542089,4.17017 13.119021,5.30658 v 8.9917 c 0,1.9599 1.577819,3.53773 3.537722,3.53773 h 16.214546 c 1.959869,0 3.537688,-1.57783 3.537688,-3.53773 v -8.9917 c 4.586729,-1.13034 8.970622,-2.81773 13.119027,-5.30658 l 6.338394,6.3384 c 1.38587,1.38589 3.625925,1.38589 5.011795,0 l 11.49755,-11.49756 c 1.38586,-1.38586 1.38586,-3.625911 0,-5.011748 l -6.33841,-6.338426 c 2.49476,-4.134361 4.31538,-8.566603 5.45399,-13.119007 h 8.99169 c 1.95991,0 3.53771,-1.577823 3.53771,-3.537721 V 58.696476 c 0,-1.959894 -1.5778,-3.537715 -3.53771,-3.537715 h -8.99169 c -1.12916,-4.548524 -2.9875,-9.002016 -5.45399,-13.119013 l 6.33841,-6.338417 c 1.38586,-1.385858 1.38586,-3.625908 0,-5.011766 L 101.84594,19.192 c -1.38587,-1.385859 -3.625925,-1.385859 -5.011795,0 l -6.338394,6.338402 C 86.353539,23.044147 81.935087,21.204391 77.376724,20.076427 v -8.991686 c 0,-1.9598942 -1.577819,-3.5377177 -3.537688,-3.5377177 z"
         transform="translate(0,-50)" /><path
         id="path918"
         transform="matrix(0.8706242,0,0,0.8706242,2.266038,-48.566771)"
         d="M 72.980469 39.984375 A 35.01575 35.01575 0 0 0 37.964844 75 A 35.01575 35.01575 0 0 0 72.980469 110.01562 A 35.01575 35.01575 0 0 0 107.99805 75 A 35.01575 35.01575 0 0 0 72.980469 39.984375 z M 74.498047 54.078125 L 78.298828 54.078125 L 71.574219 95.921875 L 67.810547 95.921875 L 74.498047 54.078125 z M 65.820312 57.890625 L 65.820312 67.695312 L 53.195312 75.041016 L 65.820312 82.416016 L 65.820312 92.164062 L 45.046875 79.101562 L 45.046875 70.925781 L 65.820312 57.890625 z M 80.142578 57.890625 L 100.91602 70.925781 L 100.91602 79.101562 L 80.142578 92.164062 L 80.142578 82.416016 L 92.767578 75.041016 L 80.142578 67.695312 L 80.142578 57.890625 z "
         style="opacity:1;fill:#00b8d4;fill-opacity:1;stroke:#000000;stroke-width:0.17376496;stroke-linecap:butt;stroke-linejoin:miter;stroke-miterlimit:4;stroke-dasharray:none;stroke-opacity:1" /></g></g></svg>