<?xml version="1.0" encoding="UTF-8" standalone="no"?>
<svg
   xmlns:dc="http://purl.org/dc/elements/1.1/"
   xmlns:cc="http://creativecommons.org/ns#"
   xmlns:rdf="http://www.w3.org/1999/02/22-rdf-syntax-ns#"
   xmlns:svg="http://www.w3.org/2000/svg"
   xmlns="http://www.w3.org/2000/svg"
   xml:space="preserve"
   enable-background="new 0 0 32 32"
   viewBox="0 0 300 100"
   height="100"
   width="300"
   y="0px"
   x="0px"
   id="Layer_1"
   version="1.1"><metadata
     id="metadata7"><rdf:RDF><cc:Work
         rdf:about=""><dc:format>image/svg+xml</dc:format><dc:type
           rdf:resource="http://purl.org/dc/dcmitype/StillImage" /><dc:title></dc:title></cc:Work></rdf:RDF></metadata><defs
     id="defs5"><marker
       orient="auto"
       refY="0"
       refX="0"
       id="Arrow2Mend-5"
       style="overflow:visible"><path
         id="path45132-1"
         style="font-size:12px;fill-rule:evenodd;stroke-width:0.625;stroke-linejoin:round"
         d="M 8.7185878,4.0337352 -2.2072895,0.01601326 8.7185884,-4.0017078 c -1.7454984,2.3720609 -1.7354408,5.6174519 -6e-7,8.035443 z"
         transform="scale(-0.6)" /></marker><marker
       orient="auto"
       refY="0"
       refX="0"
       id="DotM-00"
       style="overflow:visible"><path
         id="path14329-2"
         d="m -2.5,-1 c 0,2.76 -2.24,5 -5,5 -2.76,0 -5,-2.24 -5,-5 0,-2.76 2.24,-5 5,-5 2.76,0 5,2.24 5,5 z"
         style="fill-rule:evenodd;stroke:#000000;stroke-width:1.00000003pt;marker-start:none;marker-end:none"
         transform="matrix(0.4,0,0,0.4,2.96,0.4)" /></marker><marker
       orient="auto"
       refY="0"
       refX="0"
       id="Arrow2Mend-07"
       style="overflow:visible"><path
         id="path45132-31"
         style="font-size:12px;fill-rule:evenodd;stroke-width:0.625;stroke-linejoin:round"
         d="M 8.7185878,4.0337352 -2.2072895,0.01601326 8.7185884,-4.0017078 c -1.7454984,2.3720609 -1.7354408,5.6174519 -6e-7,8.035443 z"
         transform="scale(-0.6)" /></marker><marker
       orient="auto"
       refY="0"
       refX="0"
       id="DotM-0"
       style="overflow:visible"><path
         id="path14329-94"
         d="m -2.5,-1 c 0,2.76 -2.24,5 -5,5 -2.76,0 -5,-2.24 -5,-5 0,-2.76 2.24,-5 5,-5 2.76,0 5,2.24 5,5 z"
         style="fill-rule:evenodd;stroke:#000000;stroke-width:1.00000003pt;marker-start:none;marker-end:none"
         transform="matrix(0.4,0,0,0.4,2.96,0.4)" /></marker><marker
       orient="auto"
       refY="0"
       refX="0"
       id="Arrow2Mend-6"
       style="overflow:visible"><path
         id="path45132-8"
         style="font-size:12px;fill-rule:evenodd;stroke-width:0.625;stroke-linejoin:round"
         d="M 8.7185878,4.0337352 -2.2072895,0.01601326 8.7185884,-4.0017078 c -1.7454984,2.3720609 -1.7354408,5.6174519 -6e-7,8.035443 z"
         transform="scale(-0.6)" /></marker><marker
       orient="auto"
       refY="0"
       refX="0"
       id="DotM-8"
       style="overflow:visible"><path
         id="path14329-91"
         d="m -2.5,-1 c 0,2.76 -2.24,5 -5,5 -2.76,0 -5,-2.24 -5,-5 0,-2.76 2.24,-5 5,-5 2.76,0 5,2.24 5,5 z"
         style="fill-rule:evenodd;stroke:#000000;stroke-width:1.00000003pt;marker-start:none;marker-end:none"
         transform="matrix(0.4,0,0,0.4,2.96,0.4)" /></marker><clipPath
       id="clipPath3169-2"
       clipPathUnits="userSpaceOnUse"><rect
         y="105.34417"
         x="48.992397"
         height="428.80975"
         width="748.77557"
         id="rect3171-7"
         style="fill:#f5f5f4;fill-opacity:1;stroke:#888a85;stroke-width:2;stroke-miterlimit:4;stroke-dasharray:none;stroke-dashoffset:0;stroke-opacity:1" /></clipPath><clipPath
       clipPathUnits="userSpaceOnUse"
       id="clipPath22-7"><path
         d="M 0,792 H 1224 V 0 H 0 Z"
         id="path24-2" /></clipPath><clipPath
       id="clipPath6483-7"
       clipPathUnits="userSpaceOnUse"><rect
         y="187.65627"
         x="67.578148"
         height="280"
         width="548"
         id="rect6485-5"
         style="fill:#ffffff;fill-opacity:1;stroke:none" /></clipPath><clipPath
       clipPathUnits="userSpaceOnUse"
       id="clipPath10152"><rect
         style="fill:#555753;fill-opacity:1;stroke:#555753;stroke-width:1.83322382;stroke-miterlimit:4;stroke-dasharray:none;stroke-dashoffset:0;stroke-opacity:1"
         id="rect10154"
         width="718.58722"
         height="140.17392"
         x="-37.134048"
         y="754.14667" /></clipPath><marker
       orient="auto"
       refY="0"
       refX="0"
       id="Arrow2Mend-0"
       style="overflow:visible"><path
         id="path45132-982"
         style="font-size:12px;fill-rule:evenodd;stroke-width:0.625;stroke-linejoin:round"
         d="M 8.7185878,4.0337352 -2.2072895,0.01601326 8.7185884,-4.0017078 c -1.7454984,2.3720609 -1.7354408,5.6174519 -6e-7,8.035443 z"
         transform="scale(-0.6)" /></marker><marker
       orient="auto"
       refY="0"
       refX="0"
       id="DotM-2"
       style="overflow:visible"><path
         id="path14329-95"
         d="m -2.5,-1 c 0,2.76 -2.24,5 -5,5 -2.76,0 -5,-2.24 -5,-5 0,-2.76 2.24,-5 5,-5 2.76,0 5,2.24 5,5 z"
         style="fill-rule:evenodd;stroke:#000000;stroke-width:1.00000003pt;marker-start:none;marker-end:none"
         transform="matrix(0.4,0,0,0.4,2.96,0.4)" /></marker><marker
       orient="auto"
       refY="0"
       refX="0"
       id="Arrow2Mend-2"
       style="overflow:visible"><path
         id="path45132-98"
         style="font-size:12px;fill-rule:evenodd;stroke-width:0.625;stroke-linejoin:round"
         d="M 8.7185878,4.0337352 -2.2072895,0.01601326 8.7185884,-4.0017078 c -1.7454984,2.3720609 -1.7354408,5.6174519 -6e-7,8.035443 z"
         transform="scale(-0.6)" /></marker><marker
       orient="auto"
       refY="0"
       refX="0"
       id="DotM-5"
       style="overflow:visible"><path
         id="path14329-1"
         d="m -2.5,-1 c 0,2.76 -2.24,5 -5,5 -2.76,0 -5,-2.24 -5,-5 0,-2.76 2.24,-5 5,-5 2.76,0 5,2.24 5,5 z"
         style="fill-rule:evenodd;stroke:#000000;stroke-width:1.00000003pt;marker-start:none;marker-end:none"
         transform="matrix(0.4,0,0,0.4,2.96,0.4)" /></marker><marker
       orient="auto"
       refY="0"
       refX="0"
       id="Arrow2Mend-75"
       style="overflow:visible"><path
         id="path45132-9"
         style="font-size:12px;fill-rule:evenodd;stroke-width:0.625;stroke-linejoin:round"
         d="M 8.7185878,4.0337352 -2.2072895,0.01601326 8.7185884,-4.0017078 c -1.7454984,2.3720609 -1.7354408,5.6174519 -6e-7,8.035443 z"
         transform="scale(-0.6)" /></marker><marker
       orient="auto"
       refY="0"
       refX="0"
       id="DotM-466"
       style="overflow:visible"><path
         id="path14329-32"
         d="m -2.5,-1 c 0,2.76 -2.24,5 -5,5 -2.76,0 -5,-2.24 -5,-5 0,-2.76 2.24,-5 5,-5 2.76,0 5,2.24 5,5 z"
         style="fill-rule:evenodd;stroke:#000000;stroke-width:1.00000003pt;marker-start:none;marker-end:none"
         transform="matrix(0.4,0,0,0.4,2.96,0.4)" /></marker><marker
       orient="auto"
       refY="0"
       refX="0"
       id="marker32938"
       style="overflow:visible"><path
         id="path32940"
         style="font-size:12px;fill-rule:evenodd;stroke-width:0.625;stroke-linejoin:round"
         d="M 8.7185878,4.0337352 -2.2072895,0.01601326 8.7185884,-4.0017078 c -1.7454984,2.3720609 -1.7354408,5.6174519 -6e-7,8.035443 z"
         transform="scale(-0.6)" /></marker><marker
       orient="auto"
       refY="0"
       refX="0"
       id="marker32934"
       style="overflow:visible"><path
         id="path32936"
         d="m -2.5,-1 c 0,2.76 -2.24,5 -5,5 -2.76,0 -5,-2.24 -5,-5 0,-2.76 2.24,-5 5,-5 2.76,0 5,2.24 5,5 z"
         style="fill-rule:evenodd;stroke:#000000;stroke-width:1.00000003pt;marker-start:none;marker-end:none"
         transform="matrix(0.4,0,0,0.4,2.96,0.4)" /></marker><marker
       orient="auto"
       refY="0"
       refX="0"
       id="Arrow2Mend-7"
       style="overflow:visible"><path
         id="path45132-2"
         style="font-size:12px;fill-rule:evenodd;stroke-width:0.625;stroke-linejoin:round"
         d="M 8.7185878,4.0337352 -2.2072895,0.01601326 8.7185884,-4.0017078 c -1.7454984,2.3720609 -1.7354408,5.6174519 -6e-7,8.035443 z"
         transform="scale(-0.6)" /></marker><marker
       orient="auto"
       refY="0"
       refX="0"
       id="DotM-46"
       style="overflow:visible"><path
         id="path14329-9"
         d="m -2.5,-1 c 0,2.76 -2.24,5 -5,5 -2.76,0 -5,-2.24 -5,-5 0,-2.76 2.24,-5 5,-5 2.76,0 5,2.24 5,5 z"
         style="fill-rule:evenodd;stroke:#000000;stroke-width:1.00000003pt;marker-start:none;marker-end:none"
         transform="matrix(0.4,0,0,0.4,2.96,0.4)" /></marker><marker
       orient="auto"
       refY="0"
       refX="0"
       id="Arrow2Mend-3"
       style="overflow:visible"><path
         id="path45132-3"
         style="font-size:12px;fill-rule:evenodd;stroke-width:0.625;stroke-linejoin:round"
         d="M 8.7185878,4.0337352 -2.2072895,0.01601326 8.7185884,-4.0017078 c -1.7454984,2.3720609 -1.7354408,5.6174519 -6e-7,8.035443 z"
         transform="scale(-0.6)" /></marker><marker
       orient="auto"
       refY="0"
       refX="0"
       id="DotM-42"
       style="overflow:visible"><path
         id="path14329-3"
         d="m -2.5,-1 c 0,2.76 -2.24,5 -5,5 -2.76,0 -5,-2.24 -5,-5 0,-2.76 2.24,-5 5,-5 2.76,0 5,2.24 5,5 z"
         style="fill-rule:evenodd;stroke:#000000;stroke-width:1.00000003pt;marker-start:none;marker-end:none"
         transform="matrix(0.4,0,0,0.4,2.96,0.4)" /></marker><marker
       orient="auto"
       refY="0"
       refX="0"
       id="Arrow2Mend-9"
       style="overflow:visible"><path
         id="path45132-4"
         style="font-size:12px;fill-rule:evenodd;stroke-width:0.625;stroke-linejoin:round"
         d="M 8.7185878,4.0337352 -2.2072895,0.01601326 8.7185884,-4.0017078 c -1.7454984,2.3720609 -1.7354408,5.6174519 -6e-7,8.035443 z"
         transform="scale(-0.6)" /></marker><marker
       orient="auto"
       refY="0"
       refX="0"
       id="DotM-4"
       style="overflow:visible"><path
         id="path14329-8"
         d="m -2.5,-1 c 0,2.76 -2.24,5 -5,5 -2.76,0 -5,-2.24 -5,-5 0,-2.76 2.24,-5 5,-5 2.76,0 5,2.24 5,5 z"
         style="fill-rule:evenodd;stroke:#000000;stroke-width:1.00000003pt;marker-start:none;marker-end:none"
         transform="matrix(0.4,0,0,0.4,2.96,0.4)" /></marker><clipPath
       clipPathUnits="userSpaceOnUse"
       id="clipPath6483-5"><rect
         style="fill:#ffffff;fill-opacity:1;stroke:none"
         id="rect6485-2"
         width="548"
         height="280"
         x="67.578148"
         y="187.65627" /></clipPath><clipPath
       clipPathUnits="userSpaceOnUse"
       id="clipPath6483-1-7-3-0"><rect
         style="fill:#ffffff;fill-opacity:1;stroke:none"
         id="rect6485-6-4-5-6"
         width="548"
         height="280"
         x="67.578148"
         y="187.65627" /></clipPath><marker
       orient="auto"
       refY="0"
       refX="0"
       id="Arrow2Lend-0"
       style="overflow:visible"><path
         id="path45126-6"
         style="font-size:12px;fill-rule:evenodd;stroke-width:0.625;stroke-linejoin:round"
         d="M 8.7185878,4.0337352 -2.2072895,0.01601326 8.7185884,-4.0017078 c -1.7454984,2.3720609 -1.7354408,5.6174519 -6e-7,8.035443 z"
         transform="matrix(-1.1,0,0,-1.1,-1.1,0)" /></marker><clipPath
       clipPathUnits="userSpaceOnUse"
       id="clipPath6483-1-7-3-9"><rect
         style="fill:#ffffff;fill-opacity:1;stroke:none"
         id="rect6485-6-4-5-8"
         width="548"
         height="280"
         x="67.578148"
         y="187.65627" /></clipPath><clipPath
       clipPathUnits="userSpaceOnUse"
       id="clipPath6483-1-7-3"><rect
         style="fill:#ffffff;fill-opacity:1;stroke:none"
         id="rect6485-6-4-5"
         width="548"
         height="280"
         x="67.578148"
         y="187.65627" /></clipPath><clipPath
       clipPathUnits="userSpaceOnUse"
       id="clipPath6483-1-7"><rect
         style="fill:#ffffff;fill-opacity:1;stroke:none"
         id="rect6485-6-4"
         width="548"
         height="280"
         x="67.578148"
         y="187.65627" /></clipPath><clipPath
       clipPathUnits="userSpaceOnUse"
       id="clipPath6483-1"><rect
         style="fill:#ffffff;fill-opacity:1;stroke:none"
         id="rect6485-6"
         width="548"
         height="280"
         x="67.578148"
         y="187.65627" /></clipPath><clipPath
       clipPathUnits="userSpaceOnUse"
       id="clipPath6483"><rect
         style="fill:#ffffff;fill-opacity:1;stroke:none"
         id="rect6485"
         width="548"
         height="280"
         x="67.578148"
         y="187.65627" /></clipPath><clipPath
       id="clipPath22"
       clipPathUnits="userSpaceOnUse"><path
         id="path24"
         d="M 0,792 H 1224 V 0 H 0 Z" /></clipPath><clipPath
       clipPathUnits="userSpaceOnUse"
       id="clipPath3169"><rect
         style="fill:#f5f5f4;fill-opacity:1;stroke:#888a85;stroke-width:2;stroke-miterlimit:4;stroke-dasharray:none;stroke-dashoffset:0;stroke-opacity:1"
         id="rect3171"
         width="748.77557"
         height="428.80975"
         x="48.992397"
         y="105.34417" /></clipPath><marker
       orient="auto"
       refY="0"
       refX="0"
       id="Arrow2Lend"
       style="overflow:visible"><path
         id="path45126"
         style="font-size:12px;fill-rule:evenodd;stroke-width:0.625;stroke-linejoin:round"
         d="M 8.7185878,4.0337352 -2.2072895,0.01601326 8.7185884,-4.0017078 c -1.7454984,2.3720609 -1.7354408,5.6174519 -6e-7,8.035443 z"
         transform="matrix(-1.1,0,0,-1.1,-1.1,0)" /></marker><marker
       orient="auto"
       refY="0"
       refX="0"
       id="Arrow2Mend"
       style="overflow:visible"><path
         id="path45132"
         style="font-size:12px;fill-rule:evenodd;stroke-width:0.625;stroke-linejoin:round"
         d="M 8.7185878,4.0337352 -2.2072895,0.01601326 8.7185884,-4.0017078 c -1.7454984,2.3720609 -1.7354408,5.6174519 -6e-7,8.035443 z"
         transform="scale(-0.6)" /></marker><marker
       orient="auto"
       refY="0"
       refX="0"
       id="DotL"
       style="overflow:visible"><path
         id="path14326"
         d="m -2.5,-1 c 0,2.76 -2.24,5 -5,5 -2.76,0 -5,-2.24 -5,-5 0,-2.76 2.24,-5 5,-5 2.76,0 5,2.24 5,5 z"
         style="fill-rule:evenodd;stroke:#000000;stroke-width:1.00000003pt;marker-start:none;marker-end:none"
         transform="matrix(0.8,0,0,0.8,5.92,0.8)" /></marker><marker
       orient="auto"
       refY="0"
       refX="0"
       id="DotM"
       style="overflow:visible"><path
         id="path14329"
         d="m -2.5,-1 c 0,2.76 -2.24,5 -5,5 -2.76,0 -5,-2.24 -5,-5 0,-2.76 2.24,-5 5,-5 2.76,0 5,2.24 5,5 z"
         style="fill-rule:evenodd;stroke:#000000;stroke-width:1.00000003pt;marker-start:none;marker-end:none"
         transform="matrix(0.4,0,0,0.4,2.96,0.4)" /></marker></defs><g
     id="flowRoot1188"
     style="font-style:normal;font-variant:normal;font-weight:normal;font-stretch:normal;font-size:42.52358246px;line-height:125%;font-family:Underdog;-inkscape-font-specification:'Underdog, Normal';font-variant-ligatures:normal;font-variant-caps:normal;font-variant-numeric:normal;font-feature-settings:normal;text-align:start;letter-spacing:0px;word-spacing:0px;writing-mode:lr-tb;text-anchor:start;fill:#00838f;fill-opacity:1;stroke:none;stroke-width:1px;stroke-linecap:butt;stroke-linejoin:miter;stroke-opacity:1"
     transform="matrix(2.2888468,0,0,2.5091222,-119.93237,-60.13912)"
     aria-label="Syna"><path
       id="path4919"
       style=""
       d="m 106.22222,24.759866 2.67899,1.828514 1.19066,-1.658419 2.25375,1.78599 -3.99722,4.805165 -1.61589,-1.488325 -2.04114,-2.636462 -6.378533,1.020566 -3.359363,3.401886 2.593939,4.805165 11.013607,2.891604 2.59394,3.189268 -0.76543,8.292099 -8.80238,4.082264 -7.781813,-2.126179 -1.318231,2.126179 -2.593938,-0.59533 2.593938,-5.69816 2.168703,0.637853 6.718721,2.168703 6.63368,-2.636462 -1.2757,-6.591155 -13.054743,-2.678986 -2.423845,-8.887429 4.5075,-5.272924 z" /><path
       id="path4921"
       style=""
       d="m 132.71973,34.965526 -9.015,25.981909 -4.89021,2.083656 -5.31545,-2.764033 1.14814,-2.806557 4.46497,2.806557 2.3388,-0.637854 1.23319,-3.486934 1.10561,-3.742075 -2.21123,1.19066 -5.74068,-17.774857 -1.91356,-0.170094 -0.51029,-1.785991 5.57059,-0.510283 1.91356,8.802382 3.2318,9.312664 5.27292,-16.669244 -1.95608,-0.59533 0.0425,-1.105613 7.31406,-0.04252 0.25514,1.06309 z" /><path
       id="path4923"
       style=""
       d="m 162.77394,51.677294 -7.10144,3.571981 -2.55141,-1.318231 V 41.003875 l -1.31823,-3.869646 -3.2318,-0.340189 -4.89021,7.101439 v 8.717334 l 2.29627,0.680377 -0.34018,1.615896 -7.7393,-0.340188 -0.34018,-0.935519 2.25374,-1.020566 V 37.134229 l -2.84908,-1.615896 2.21123,-2.934127 3.91217,4.209834 0.59533,3.91217 4.25236,-6.803773 5.48554,0.297665 3.23179,5.825731 -0.68037,11.353796 0.68037,0.59533 3.86965,-2.891603 z" /><path
       id="path4925"
       style=""
       d="m 172.75303,43.682861 -4.76264,3.189268 -0.12757,4.762642 1.70094,0.892995 q 0.85047,-0.04252 1.57337,-0.08505 0.59533,-0.04252 1.06309,-0.08505 0.51028,-0.08505 0.51028,-0.170094 0,0 0.1701,-0.255141 0.17009,-0.255142 0.42523,-0.637854 0.29767,-0.425236 0.63786,-0.892995 0.34019,-0.510283 0.7229,-1.020566 0.85047,-1.190661 1.99861,-2.72151 l -0.29767,-3.104221 z m -2.72151,-11.481368 9.61033,2.25375 0.17009,17.477193 3.61451,0.255141 0.0425,1.956085 -5.27292,0.510283 -1.78599,-3.742075 -2.21123,3.486933 -7.18649,1.360755 -2.63646,-3.189269 0.1701,-6.463584 7.27153,-4.720118 4.5075,-0.59533 0.34019,-4.63507 -7.10144,-0.935519 -2.08366,3.614504 -2.33879,-2.466368 0.42523,-1.063089 z" /></g><flowRoot
     style="font-style:normal;font-weight:normal;font-size:40px;line-height:125%;font-family:Sans;letter-spacing:0px;word-spacing:0px;fill:#000000;fill-opacity:1;stroke:none;stroke-width:1px;stroke-linecap:butt;stroke-linejoin:miter;stroke-opacity:1"
     id="flowRoot1196"
     xml:space="preserve"><flowRegion
       id="flowRegion1198"><rect
         y="110.07627"
         x="103.41437"
         height="41.100582"
         width="44.812893"
         id="rect1200" /></flowRegion><flowPara
       id="flowPara1202">By </flowPara></flowRoot><path
     d="m 66.287912,44.339218 c 0,13.675309 -11.086029,24.761337 -24.761339,24.761337 -13.67531,0 -24.761339,-11.086028 -24.761339,-24.761337 0,-13.675309 11.086029,-24.761337 24.761339,-24.761337 13.67531,0 24.761339,11.086028 24.761339,24.761337 z M 35.926705,3.8284346 c -1.341549,0 -2.421567,1.080019 -2.421567,2.4215674 v 6.154811 c -3.132361,0.777602 -6.147244,2.029125 -8.979975,3.733245 l -4.338635,-4.338636 c -0.948614,-0.94862 -2.481936,-0.94862 -3.430556,0 l -7.8700838,7.870084 c -0.9486222,0.94862 -0.9486222,2.481934 0,3.430554 l 4.3386348,4.338647 c -1.690788,2.824449 -2.863181,5.873515 -3.6323485,8.979965 H 3.4373611 c -1.3415482,0 -2.4215673,1.080019 -2.4215673,2.421559 V 49.93908 c 0,1.341549 1.0800191,2.421567 2.4215673,2.421567 h 6.0539165 c 0.7774704,3.13515 2.0276894,6.14486 3.7332454,8.979966 L 8.8858882,65.67926 c -0.9486222,0.948612 -0.9486222,2.481933 0,3.430554 l 7.8700838,7.870075 c 0.94862,0.94864 2.481942,0.94864 3.430556,0 l 4.338635,-4.338628 c 2.845105,1.715933 5.84706,2.854468 8.979975,3.632351 v 6.154805 c 0,1.341566 1.080018,2.421584 2.421567,2.421584 h 11.098851 c 1.341538,0 2.421558,-1.080018 2.421558,-2.421584 v -6.154805 c 3.139611,-0.773726 6.140385,-1.92874 8.979971,-3.632351 l 4.338638,4.338628 c 0.948623,0.94864 2.481942,0.94864 3.430563,0 l 7.870075,-7.870075 c 0.948622,-0.948621 0.948622,-2.481942 0,-3.430554 l -4.338637,-4.338647 c 1.70766,-2.829974 2.953868,-5.863844 3.733255,-8.979966 h 6.154813 c 1.341548,0 2.421558,-1.080018 2.421558,-2.421567 V 38.840239 c 0,-1.341548 -1.08001,-2.421567 -2.421558,-2.421567 h -6.154813 c -0.77291,-3.113465 -2.044948,-6.161881 -3.733255,-8.979965 l 4.338637,-4.338647 c 0.948622,-0.94862 0.948622,-2.481934 0,-3.430554 l -7.870075,-7.870084 c -0.948621,-0.94862 -2.48194,-0.94862 -3.430563,0 l -4.338638,4.338636 C 55.591741,14.436217 52.567309,13.176904 49.447114,12.404813 V 6.250002 c 0,-1.3415484 -1.08002,-2.4215674 -2.421558,-2.4215674 z"
     style="opacity:1;fill:#00b8d4;fill-opacity:1;stroke:#000000;stroke-width:0.05059968;stroke-linecap:butt;stroke-linejoin:miter;stroke-miterlimit:4;stroke-dasharray:none;stroke-opacity:1"
     id="path930" /><g
     id="layer1"><path
       id="path918"
       d="M 62.39394,44.339218 A 20.867367,20.867367 0 0 1 41.526573,65.206585 20.867367,20.867367 0 0 1 20.659206,44.339218 20.867367,20.867367 0 0 1 41.526573,23.471851 20.867367,20.867367 0 0 1 62.39394,44.339218 Z"
       style="opacity:1;fill:#006064;fill-opacity:1;stroke:#000000;stroke-width:0.1035539;stroke-linecap:butt;stroke-linejoin:miter;stroke-miterlimit:4;stroke-dasharray:none;stroke-opacity:1" /><g
       id="flowRoot920"
       style="font-style:normal;font-variant:normal;font-weight:normal;font-stretch:normal;font-size:39.99940109px;line-height:125%;font-family:'Arial Black';-inkscape-font-specification:'Arial Black, Normal';font-variant-ligatures:normal;font-variant-caps:normal;font-variant-numeric:normal;font-feature-settings:normal;text-align:center;letter-spacing:0px;word-spacing:0px;writing-mode:lr-tb;text-anchor:middle;fill:#e0f7fa;fill-opacity:1;stroke:none;stroke-width:1px;stroke-linecap:butt;stroke-linejoin:miter;stroke-opacity:1"
       transform="matrix(0.62294253,0,0,0.94170544,-23.018548,-92.21133)"
       aria-label="&lt;/&gt;"><path
         id="path4911"
         style=""
         d="m 95.957146,157.14195 -22.206699,-9.23814 v -5.78117 l 22.206699,-9.21861 v 6.93349 l -13.495892,5.19524 13.495892,5.21476 z" /><path
         id="path4913"
         style=""
         d="m 105.23435,130.20876 h 4.06244 l -7.18739,29.5894 h -4.023379 z" /><path
         id="path4915"
         style=""
         d="m 111.26942,157.14195 22.2067,-9.23814 v -5.78117 l -22.2067,-9.21861 v 6.93349 l 13.49589,5.19524 -13.49589,5.21476 z" /></g><flowRoot
       style="fill:black;stroke:none;stroke-opacity:1;stroke-width:1px;stroke-linejoin:miter;stroke-linecap:butt;fill-opacity:1;font-family:'URW Bookman';font-style:normal;font-weight:300;font-size:40px;line-height:125%;letter-spacing:0px;word-spacing:0px;-inkscape-font-specification:'URW Bookman, Light';font-stretch:normal;font-variant:normal;text-anchor:middle;text-align:center;writing-mode:lr;font-variant-ligatures:normal;font-variant-caps:normal;font-variant-numeric:normal;font-feature-settings:normal"
       id="flowRoot4899"
       xml:space="preserve"><flowRegion
         id="flowRegion4901"><rect
           y="-53.928314"
           x="-45.939846"
           height="258.93369"
           width="4335.0508"
           id="rect4903" /></flowRegion><flowPara
         id="flowPara4905"></flowPara></flowRoot></g></svg>