<svg enable-background="new 0 0 32 32" height="150" viewBox="0 0 450 150" width="450" xmlns="http://www.w3.org/2000/svg"><g fill="#00838f" transform="matrix(3.2202482 0 0 3.5301604 -145.77692 -80.426448)"><path d="m106.22222 24.759866 2.67899 1.828514 1.19066-1.658419 2.25375 1.78599-3.99722 4.805165-1.61589-1.488325-2.04114-2.636462-6.378533 1.020566-3.359363 3.401886 2.593939 4.805165 11.013607 2.891604 2.59394 3.189268-.76543 8.292099-8.80238 4.082264-7.781813-2.126179-1.318231 2.126179-2.593938-.59533 2.593938-5.69816 2.168703.637853 6.718721 2.168703 6.63368-2.636462-1.2757-6.591155-13.054743-2.678986-2.423845-8.887429 4.5075-5.272924z"/><path d="m132.71973 34.965526-9.015 25.981909-4.89021 2.083656-5.31545-2.764033 1.14814-2.806557 4.46497 2.806557 2.3388-.637854 1.23319-3.486934 1.10561-3.742075-2.21123 1.19066-5.74068-17.774857-1.91356-.170094-.51029-1.785991 5.57059-.510283 1.91356 8.802382 3.2318 9.312664 5.27292-16.669244-1.95608-.59533.0425-1.105613 7.31406-.04252.25514 1.06309z"/><path d="m162.77394 51.677294-7.10144 3.571981-2.55141-1.318231v-12.927169l-1.31823-3.869646-3.2318-.340189-4.89021 7.101439v8.717334l2.29627.680377-.34018 1.615896-7.7393-.340188-.34018-.935519 2.25374-1.020566v-15.478584l-2.84908-1.615896 2.21123-2.934127 3.91217 4.209834.59533 3.91217 4.25236-6.803773 5.48554.297665 3.23179 5.825731-.68037 11.353796.68037.59533 3.86965-2.891603z"/><path d="m172.75303 43.682861-4.76264 3.189268-.12757 4.762642 1.70094.892995q.85047-.04252 1.57337-.08505.59533-.04252 1.06309-.08505.51028-.08505.51028-.170094 0 0 .1701-.255141.17009-.255142.42523-.637854.29767-.425236.63786-.892995.34019-.510283.7229-1.020566.85047-1.190661 1.99861-2.72151l-.29767-3.104221zm-2.72151-11.481368 9.61033 2.25375.17009 17.477193 3.61451.255141.0425 1.956085-5.27292.510283-1.78599-3.742075-2.21123 3.486933-7.18649 1.360755-2.63646-3.189269.1701-6.463584 7.27153-4.720118 4.5075-.59533.34019-4.63507-7.10144-.935519-2.08366 3.614504-2.33879-2.466368.42523-1.063089z"/></g><path d="m101.97979 66.730047c0 19.978541-16.195798 36.174343-36.174342 36.174343-19.978532 0-36.174343-16.195802-36.174343-36.174343 0-19.978536 16.195811-36.174339 36.174343-36.174339 19.978544 0 36.174342 16.195803 36.174342 36.174339zm-44.3553-59.1830237c-1.959903 0-3.537722 1.5778235-3.537722 3.5377177v8.991686c-4.576126 1.136015-8.980629 2.964392-13.119021 5.453975l-6.338406-6.338401c-1.385847-1.385857-3.625908-1.385857-5.011766 0l-11.497566 11.497564c-1.385861 1.385858-1.385861 3.625908 0 5.011766l6.338401 6.338417c-2.470107 4.126294-4.18288 8.580737-5.306573 13.119013h-8.991691c-1.9598946 0-3.5377171 1.577821-3.5377171 3.537704v16.214533c0 1.959898 1.5778225 3.537721 3.5377171 3.537721h8.844288c1.135824 4.580205 2.962294 8.977151 5.453976 13.119007l-6.338401 6.338426c-1.385861 1.385837-1.385861 3.625888 0 5.011748l11.497566 11.49756c1.385858 1.38589 3.625919 1.38589 5.011766 0l6.338406-6.3384c4.156457 2.50685 8.542089 4.17017 13.119021 5.30658v8.9917c0 1.9599 1.577819 3.53773 3.537722 3.53773h16.214546c1.959869 0 3.537688-1.57783 3.537688-3.53773v-8.9917c4.586729-1.13034 8.970622-2.81773 13.119027-5.30658l6.338394 6.3384c1.38587 1.38589 3.625925 1.38589 5.011795 0l11.49755-11.49756c1.38586-1.38586 1.38586-3.625911 0-5.011748l-6.33841-6.338426c2.49476-4.134361 4.31538-8.566603 5.45399-13.119007h8.99169c1.95991 0 3.53771-1.577823 3.53771-3.537721v-16.214522c0-1.959894-1.5778-3.537715-3.53771-3.537715h-8.99169c-1.12916-4.548524-2.9875-9.002016-5.45399-13.119013l6.33841-6.338417c1.38586-1.385858 1.38586-3.625908 0-5.011766l-11.49755-11.497565c-1.38587-1.385859-3.625925-1.385859-5.011795 0l-6.338394 6.338402c-4.142212-2.486255-8.560664-4.326011-13.119027-5.453975v-8.991686c0-1.9598942-1.577819-3.5377177-3.537688-3.5377177z" fill="#006069" stroke="#000" stroke-width=".073922" transform="matrix(1.1486012 0 0 1.1486012 -2.602774 -1.646209)"/><path d="m72.980469 39.984375a35.01575 35.01575 0 0 0 -35.015625 35.015625 35.01575 35.01575 0 0 0 35.015625 35.01562 35.01575 35.01575 0 0 0 35.017581-35.01562 35.01575 35.01575 0 0 0 -35.017581-35.015625zm1.517578 14.09375h3.800781l-6.724609 41.84375h-3.763672zm-8.677735 3.8125v9.804687l-12.625 7.345704 12.625 7.375v9.748046l-20.773437-13.0625v-8.175781zm14.322266 0 20.773442 13.035156v8.175781l-20.773442 13.0625v-9.748046l12.625-7.375-12.625-7.345704z" fill="#00b8d4" stroke="#000" stroke-width=".173765" transform="matrix(1.000000000869 0 0 1.000000000869 -.000000033954 -.000000450725)"/></svg>