<?xml version="1.0" encoding="UTF-8" standalone="no"?>
<svg
   xmlns:dc="http://purl.org/dc/elements/1.1/"
   xmlns:cc="http://creativecommons.org/ns#"
   xmlns:rdf="http://www.w3.org/1999/02/22-rdf-syntax-ns#"
   xmlns:svg="http://www.w3.org/2000/svg"
   xmlns="http://www.w3.org/2000/svg"
   xml:space="preserve"
   enable-background="new 0 0 300 100"
   viewBox="0 0 300 100"
   height="100px"
   width="300px"
   y="0px"
   x="0px"
   id="Layer_1"
   version="1.1"><metadata
     id="metadata43"><rdf:RDF><cc:Work
         rdf:about=""><dc:format>image/svg+xml</dc:format><dc:type
           rdf:resource="http://purl.org/dc/dcmitype/StillImage" /><dc:title></dc:title></cc:Work></rdf:RDF></metadata><defs
     id="defs41" /><g
     transform="matrix(1.2311547,0,0,1.2311547,-35.90436,-12.78889)"
     id="g36"><rect
       style="fill:#0071bc"
       id="rect2"
       height="3.4990001"
       width="4.8109999"
       y="38.756001"
       x="55.448002" /><rect
       id="rect4"
       height="3.4990001"
       width="5.2480001"
       y="46.188999"
       x="42.330002" /><rect
       id="rect6"
       height="3.4979999"
       width="4.8109999"
       y="53.187"
       x="38.394001" /><rect
       style="fill:#0071bc"
       id="rect8"
       height="3.4990001"
       width="4.8109999"
       y="60.182999"
       x="51.075001" /><rect
       id="rect10"
       height="3.4990001"
       width="10.058"
       y="60.182999"
       x="59.383999" /><rect
       style="fill:#0071bc"
       id="rect12"
       height="3.4979999"
       width="22.74"
       y="53.187"
       x="46.702999" /><rect
       id="rect14"
       height="3.4990001"
       width="18.367001"
       y="46.188999"
       x="51.075001" /><polygon
       style="fill:#0071bc"
       id="polygon16"
       points="80.813,63.682 84.616,63.682 87.16,60.183 80.813,60.183 " /><polygon
       id="polygon18"
       points="80.813,56.685 89.011,56.685 91.556,53.187 80.813,53.187 " /><polygon
       style="fill:#0071bc"
       id="polygon20"
       points="80.813,49.688 92.481,49.688 89.936,46.189 80.813,46.189 " /><path
       style="fill:#0071bc"
       id="path22"
       d="M 133.726,64.119 V 37.881 h 9.086 c 2.025,0 3.571,0.174 4.636,0.422 1.491,0.344 2.766,0.992 3.818,1.89 1.373,1.162 2.4,2.656 3.082,4.462 0.681,1.805 1.021,3.875 1.021,6.196 0,1.978 -0.231,3.734 -0.693,5.261 -0.462,1.527 -1.055,2.793 -1.777,3.793 -0.722,1 -1.512,1.788 -2.37,2.363 -0.858,0.574 -1.894,1.06 -3.108,1.356 -1.214,0.296 -2.608,0.494 -4.183,0.494 h -9.512 z m 3.498,-3.061 h 5.623 c 1.717,0 3.064,-0.216 4.042,-0.536 0.976,-0.319 1.754,-0.796 2.336,-1.378 0.817,-0.816 1.452,-1.929 1.909,-3.309 0.455,-1.378 0.684,-3.059 0.684,-5.023 0,-2.723 -0.446,-4.819 -1.342,-6.282 -0.893,-1.462 -1.979,-2.5 -3.258,-2.998 -0.924,-0.354 -2.41,-0.59 -4.458,-0.59 h -5.534 v 20.116 z" /><path
       style="fill:#0071bc"
       id="path24"
       d="M 160.403,64.119 V 37.881 h 3.497 v 26.238 z" /><path
       style="fill:#0071bc"
       id="path26"
       d="M 169.586,64.119 V 37.881 h 11.601 c 2.318,0 4.083,0.284 5.291,0.751 1.208,0.467 2.172,1.319 2.895,2.502 0.723,1.185 1.084,2.505 1.084,3.938 0,1.847 -0.598,3.411 -1.793,4.677 -1.197,1.268 -3.044,2.075 -5.542,2.419 0.911,0.438 1.604,0.872 2.078,1.297 1.006,0.924 1.959,2.132 2.859,3.516 l 4.528,7.138 h -4.334 l -3.445,-5.468 c -1.005,-1.563 -1.836,-2.782 -2.486,-3.612 -0.65,-0.829 -1.235,-1.421 -1.75,-1.753 -0.514,-0.332 -1.037,-0.641 -1.57,-0.77 -0.392,-0.085 -1.031,-0.205 -1.918,-0.205 h -3.999 v 11.808 z m 3.498,-14.431 h 7.408 c 1.574,0 2.806,-0.27 3.695,-0.596 0.887,-0.326 1.563,-0.9 2.023,-1.618 0.461,-0.716 0.694,-1.521 0.694,-2.361 0,-1.231 -0.449,-2.216 -1.343,-3.009 -0.893,-0.792 -2.307,-1.162 -4.237,-1.162 h -8.241 v 8.746 z" /><path
       style="fill:#0071bc"
       id="path28"
       d="M 196.698,64.119 V 37.881 h 18.805 v 3.061 h -15.306 v 7.872 h 14.431 v 3.061 h -14.431 v 9.184 h 16.179 v 3.062 h -19.678 z" /><path
       style="fill:#0071bc"
       id="path30"
       d="m 238.582,54.89 3.445,0.871 c -0.723,2.829 -2.021,4.986 -3.898,6.472 -1.877,1.487 -4.171,2.23 -6.882,2.23 -2.808,0 -5.089,-0.573 -6.846,-1.715 -1.759,-1.143 -3.097,-2.798 -4.015,-4.964 -0.917,-2.166 -1.377,-4.494 -1.377,-6.98 0,-2.711 0.518,-5.076 1.553,-7.094 1.037,-2.019 2.514,-3.553 4.425,-4.601 1.911,-1.047 4.016,-1.572 6.312,-1.572 2.605,0 4.796,0.665 6.573,1.991 1.776,1.325 3.013,3.19 3.712,5.593 l -3.394,0.8 c -0.604,-1.894 -1.479,-3.274 -2.627,-4.139 -1.149,-0.864 -2.594,-1.297 -4.334,-1.297 -2.001,0 -3.674,0.48 -5.017,1.439 -1.345,0.96 -2.29,2.247 -2.835,3.862 -0.544,1.617 -0.814,3.283 -0.814,5 0,2.213 0.321,4.147 0.966,5.799 0.646,1.65 1.65,2.886 3.011,3.702 1.362,0.816 2.836,1.227 4.422,1.227 1.931,0 3.565,-0.558 4.904,-1.67 1.336,-1.112 2.241,-2.765 2.716,-4.954 z" /><path
       style="fill:#0071bc"
       id="path32"
       d="M 251.361,64.119 V 40.942 h -8.31 v -3.061 h 20.555 v 3.061 h -8.747 v 23.177 z" /><polygon
       id="polygon34"
       points="64.194,42.292 72.503,42.288 72.503,64.119 77.751,64.119 77.751,42.286 91.388,42.279 96.639,50.263 87.713,64.119 94.019,64.119 99.809,54.677 105.58,64.119 111.92,64.119 103.022,50.302 108.453,41.816 117.546,41.816 117.546,64.119 122.794,64.119 122.794,41.816 129.79,41.816 129.79,37.881 105.031,37.881 104.427,37.881 104.427,38.177 99.654,46.326 94.693,37.881 64.194,37.881 " /></g></svg>