<?xml version="1.0" encoding="UTF-8" standalone="no"?>
<svg
   xmlns:dc="http://purl.org/dc/elements/1.1/"
   xmlns:cc="http://creativecommons.org/ns#"
   xmlns:rdf="http://www.w3.org/1999/02/22-rdf-syntax-ns#"
   xmlns:svg="http://www.w3.org/2000/svg"
   xmlns="http://www.w3.org/2000/svg"
   xmlns:sodipodi="http://sodipodi.sourceforge.net/DTD/sodipodi-0.dtd"
   xmlns:inkscape="http://www.inkscape.org/namespaces/inkscape"
   id="svg8"
   version="1.1"
   viewBox="0 0 74.083334 21.166666"
   height="80"
   width="280"
   sodipodi:docname="logo.svg"
   inkscape:version="0.92.2 5c3e80d, 2017-08-06">
  <sodipodi:namedview
     pagecolor="#ffffff"
     bordercolor="#666666"
     borderopacity="1"
     objecttolerance="10"
     gridtolerance="10"
     guidetolerance="10"
     inkscape:pageopacity="0"
     inkscape:pageshadow="2"
     inkscape:window-width="1916"
     inkscape:window-height="1041"
     id="namedview14"
     showgrid="false"
     inkscape:zoom="1.2142857"
     inkscape:cx="107.05882"
     inkscape:cy="40"
     inkscape:window-x="1366"
     inkscape:window-y="18"
     inkscape:window-maximized="0"
     inkscape:current-layer="layer1" />
  <defs
     id="defs2" />
  <metadata
     id="metadata5">
    <rdf:RDF>
      <cc:Work
         rdf:about="">
        <dc:format>image/svg+xml</dc:format>
        <dc:type
           rdf:resource="http://purl.org/dc/dcmitype/StillImage" />
        <dc:title></dc:title>
      </cc:Work>
    </rdf:RDF>
  </metadata>
  <g
     transform="translate(0,-275.83334)"
     id="layer1">
    <g
       aria-label="txt"
       transform="matrix(0.39743025,0,0,0.39743025,-2.6143894,268.97227)"
       style="font-style:normal;font-weight:normal;font-size:40px;line-height:125%;font-family:Sans;letter-spacing:0px;word-spacing:0px;fill:#000000;fill-opacity:1;stroke:none;stroke-width:1px;stroke-linecap:butt;stroke-linejoin:miter;stroke-opacity:1"
       id="flowRoot815">
      <path
         d="m 21.433594,29.738281 v 6.210938 h 7.402343 v 2.792968 h -7.402343 v 11.875 q 0,2.675782 0.722656,3.4375 0.742187,0.761719 2.988281,0.761719 h 3.691406 v 3.007813 h -3.691406 q -4.160156,0 -5.742187,-1.542969 -1.582032,-1.5625 -1.582032,-5.664063 v -11.875 h -2.636718 v -2.792968 h 2.636718 v -6.210938 z"
         style="fill:#ffffff;fill-opacity:1"
         id="path889" />
      <path
         d="M 51.765625,35.949219 43.855469,46.59375 52.175781,57.824219 H 47.9375 l -6.367188,-8.59375 -6.367187,8.59375 H 30.964844 L 39.460937,46.378906 31.6875,35.949219 h 4.238281 l 5.800781,7.792968 5.800782,-7.792968 z"
         style="fill:#ffffff;fill-opacity:1"
         id="path891" />
      <path
         d="m 60.808594,29.738281 v 6.210938 h 7.402343 v 2.792968 h -7.402343 v 11.875 q 0,2.675782 0.722656,3.4375 0.742187,0.761719 2.988281,0.761719 h 3.691406 v 3.007813 h -3.691406 q -4.160156,0 -5.742187,-1.542969 -1.582032,-1.5625 -1.582032,-5.664063 v -11.875 h -2.636718 v -2.792968 h 2.636718 v -6.210938 z"
         style="fill:#ffffff;fill-opacity:1"
         id="path893" />
    </g>
    <g
       aria-label="direct"
       transform="matrix(0.39743025,0,0,0.39743025,20.759227,268.96395)"
       style="font-style:normal;font-weight:normal;font-size:40px;line-height:125%;font-family:Sans;letter-spacing:0px;word-spacing:0px;fill:#536dfe;fill-opacity:1;stroke:none;stroke-width:1px;stroke-linecap:butt;stroke-linejoin:miter;stroke-opacity:1"
       id="flowRoot815-3">
      <path
         d="M 32.273437,39.269531 V 27.433594 h 3.59375 v 30.390625 h -3.59375 v -3.28125 q -1.132812,1.953125 -2.871093,2.910156 -1.71875,0.9375 -4.140625,0.9375 -3.964844,0 -6.464844,-3.164063 -2.480469,-3.164062 -2.480469,-8.320312 0,-5.15625 2.480469,-8.320313 2.5,-3.164062 6.464844,-3.164062 2.421875,0 4.140625,0.957031 1.738281,0.9375 2.871093,2.890625 z M 20.027344,46.90625 q 0,3.964844 1.621093,6.230469 1.640625,2.246093 4.492188,2.246093 2.851562,0 4.492187,-2.246093 1.640625,-2.265625 1.640625,-6.230469 0,-3.964844 -1.640625,-6.210938 -1.640625,-2.265625 -4.492187,-2.265625 -2.851563,0 -4.492188,2.265625 -1.621093,2.246094 -1.621093,6.210938 z"
         style="opacity:1;fill:#388e3c;fill-opacity:1"
         id="path876" />
      <path
         d="m 43.269531,35.949219 h 3.59375 v 21.875 h -3.59375 z m 0,-8.515625 h 3.59375 v 4.550781 h -3.59375 z"
         style="opacity:1;fill:#388e3c;fill-opacity:1"
         id="path878" />
      <path
         d="M 67.039062,39.308594 Q 66.433594,38.957031 65.710937,38.800781 65.007812,38.625 64.148437,38.625 q -3.046875,0 -4.6875,1.992187 -1.621093,1.972657 -1.621093,5.683594 v 11.523438 h -3.613282 v -21.875 h 3.613282 v 3.398437 q 1.132812,-1.992187 2.949218,-2.949219 1.816407,-0.976562 4.414063,-0.976562 0.371094,0 0.820312,0.05859 0.449219,0.03906 0.996094,0.136718 z"
         style="opacity:1;fill:#388e3c;fill-opacity:1"
         id="path880" />
      <path
         d="m 88.699219,45.988281 v 1.757813 H 72.175781 q 0.234375,3.710937 2.226563,5.664062 2.011718,1.933594 5.585937,1.933594 2.070313,0 4.003906,-0.507813 1.953125,-0.507812 3.867188,-1.523437 v 3.398437 q -1.933594,0.820313 -3.964844,1.25 -2.03125,0.429688 -4.121094,0.429688 -5.234375,0 -8.300781,-3.046875 -3.046875,-3.046875 -3.046875,-8.242188 0,-5.371093 2.890625,-8.515625 2.910156,-3.164062 7.832031,-3.164062 4.414063,0 6.972657,2.851562 2.578125,2.832032 2.578125,7.714844 z m -3.59375,-1.054687 Q 85.066406,41.984375 83.445312,40.226562 81.84375,38.46875 79.1875,38.46875 q -3.007813,0 -4.824219,1.699219 -1.796875,1.699218 -2.070312,4.785156 z"
         style="opacity:1;fill:#388e3c;fill-opacity:1"
         id="path882" />
      <path
         d="m 110.33984,36.789062 v 3.359375 q -1.52343,-0.839843 -3.0664,-1.25 -1.52344,-0.429687 -3.08594,-0.429687 -3.49609,0 -5.429688,2.226562 -1.933593,2.207032 -1.933593,6.210938 0,4.003906 1.933593,6.230469 1.933598,2.207031 5.429688,2.207031 1.5625,0 3.08594,-0.410156 1.54297,-0.429688 3.0664,-1.269532 v 3.320313 q -1.5039,0.703125 -3.125,1.054687 -1.60156,0.351563 -3.41796,0.351563 -4.941411,0 -7.851568,-3.105469 -2.910156,-3.105469 -2.910156,-8.378906 0,-5.351563 2.929688,-8.417969 2.949218,-3.066406 8.066406,-3.066406 1.66016,0 3.24219,0.351562 1.58203,0.332032 3.0664,1.015625 z"
         style="opacity:1;fill:#388e3c;fill-opacity:1"
         id="path884" />
      <path
         d="m 120.18359,29.738281 v 6.210938 h 7.40235 v 2.792968 h -7.40235 v 11.875 q 0,2.675782 0.72266,3.4375 0.74219,0.761719 2.98828,0.761719 h 3.69141 v 3.007813 h -3.69141 q -4.16015,0 -5.74219,-1.542969 -1.58203,-1.5625 -1.58203,-5.664063 v -11.875 h -2.63672 v -2.792968 h 2.63672 v -6.210938 z"
         style="opacity:1;fill:#388e3c;fill-opacity:1"
         id="path886" />
    </g>
    <flowRoot
       xml:space="preserve"
       id="flowRoot840"
       style="fill:black;stroke:none;stroke-opacity:1;stroke-width:1px;stroke-linejoin:miter;stroke-linecap:butt;fill-opacity:1;font-family:Sans;font-style:normal;font-weight:normal;font-size:40px;line-height:125%;letter-spacing:0px;word-spacing:0px"><flowRegion
         id="flowRegion842"><rect
           id="rect844"
           width="490"
           height="269.29413"
           x="-104.58823"
           y="-92.117645" /></flowRegion><flowPara
         id="flowPara846"></flowPara></flowRoot>    <flowRoot
       xml:space="preserve"
       id="flowRoot868"
       style="fill:black;stroke:none;stroke-opacity:1;stroke-width:1px;stroke-linejoin:miter;stroke-linecap:butt;fill-opacity:1;font-family:Sans;font-style:normal;font-weight:normal;font-size:40px;line-height:125%;letter-spacing:0px;word-spacing:0px"><flowRegion
         id="flowRegion870"><rect
           id="rect872"
           width="680.23529"
           height="354.94116"
           x="-180.35294"
           y="-183.52942" /></flowRegion><flowPara
         id="flowPara874"></flowPara></flowRoot>  </g>
</svg>
