<?xml version="1.0" encoding="UTF-8" standalone="no"?>
<svg
   xmlns:dc="http://purl.org/dc/elements/1.1/"
   xmlns:cc="http://creativecommons.org/ns#"
   xmlns:rdf="http://www.w3.org/1999/02/22-rdf-syntax-ns#"
   xmlns:svg="http://www.w3.org/2000/svg"
   xmlns="http://www.w3.org/2000/svg"
   xml:space="preserve"
   enable-background="new 0 0 32 32"
   viewBox="0 0 100 100"
   height="100"
   width="100"
   y="0px"
   x="0px"
   id="Layer_1"
   version="1.1"><metadata
     id="metadata7"><rdf:RDF><cc:Work
         rdf:about=""><dc:format>image/svg+xml</dc:format><dc:type
           rdf:resource="http://purl.org/dc/dcmitype/StillImage" /><dc:title></dc:title></cc:Work></rdf:RDF></metadata><defs
     id="defs5"><marker
       orient="auto"
       refY="0"
       refX="0"
       id="Arrow2Mend-5"
       style="overflow:visible"><path
         id="path45132-1"
         style="font-size:12px;fill-rule:evenodd;stroke-width:0.625;stroke-linejoin:round"
         d="M 8.7185878,4.0337352 -2.2072895,0.01601326 8.7185884,-4.0017078 c -1.7454984,2.3720609 -1.7354408,5.6174519 -6e-7,8.035443 z"
         transform="scale(-0.6)" /></marker><marker
       orient="auto"
       refY="0"
       refX="0"
       id="DotM-00"
       style="overflow:visible"><path
         id="path14329-2"
         d="m -2.5,-1 c 0,2.76 -2.24,5 -5,5 -2.76,0 -5,-2.24 -5,-5 0,-2.76 2.24,-5 5,-5 2.76,0 5,2.24 5,5 z"
         style="fill-rule:evenodd;stroke:#000000;stroke-width:1.00000003pt;marker-start:none;marker-end:none"
         transform="matrix(0.4,0,0,0.4,2.96,0.4)" /></marker><marker
       orient="auto"
       refY="0"
       refX="0"
       id="Arrow2Mend-07"
       style="overflow:visible"><path
         id="path45132-31"
         style="font-size:12px;fill-rule:evenodd;stroke-width:0.625;stroke-linejoin:round"
         d="M 8.7185878,4.0337352 -2.2072895,0.01601326 8.7185884,-4.0017078 c -1.7454984,2.3720609 -1.7354408,5.6174519 -6e-7,8.035443 z"
         transform="scale(-0.6)" /></marker><marker
       orient="auto"
       refY="0"
       refX="0"
       id="DotM-0"
       style="overflow:visible"><path
         id="path14329-94"
         d="m -2.5,-1 c 0,2.76 -2.24,5 -5,5 -2.76,0 -5,-2.24 -5,-5 0,-2.76 2.24,-5 5,-5 2.76,0 5,2.24 5,5 z"
         style="fill-rule:evenodd;stroke:#000000;stroke-width:1.00000003pt;marker-start:none;marker-end:none"
         transform="matrix(0.4,0,0,0.4,2.96,0.4)" /></marker><marker
       orient="auto"
       refY="0"
       refX="0"
       id="Arrow2Mend-6"
       style="overflow:visible"><path
         id="path45132-8"
         style="font-size:12px;fill-rule:evenodd;stroke-width:0.625;stroke-linejoin:round"
         d="M 8.7185878,4.0337352 -2.2072895,0.01601326 8.7185884,-4.0017078 c -1.7454984,2.3720609 -1.7354408,5.6174519 -6e-7,8.035443 z"
         transform="scale(-0.6)" /></marker><marker
       orient="auto"
       refY="0"
       refX="0"
       id="DotM-8"
       style="overflow:visible"><path
         id="path14329-91"
         d="m -2.5,-1 c 0,2.76 -2.24,5 -5,5 -2.76,0 -5,-2.24 -5,-5 0,-2.76 2.24,-5 5,-5 2.76,0 5,2.24 5,5 z"
         style="fill-rule:evenodd;stroke:#000000;stroke-width:1.00000003pt;marker-start:none;marker-end:none"
         transform="matrix(0.4,0,0,0.4,2.96,0.4)" /></marker><clipPath
       id="clipPath3169-2"
       clipPathUnits="userSpaceOnUse"><rect
         y="105.34417"
         x="48.992397"
         height="428.80975"
         width="748.77557"
         id="rect3171-7"
         style="fill:#f5f5f4;fill-opacity:1;stroke:#888a85;stroke-width:2;stroke-miterlimit:4;stroke-dasharray:none;stroke-dashoffset:0;stroke-opacity:1" /></clipPath><clipPath
       clipPathUnits="userSpaceOnUse"
       id="clipPath22-7"><path
         d="M 0,792 H 1224 V 0 H 0 Z"
         id="path24-2" /></clipPath><clipPath
       id="clipPath6483-7"
       clipPathUnits="userSpaceOnUse"><rect
         y="187.65627"
         x="67.578148"
         height="280"
         width="548"
         id="rect6485-5"
         style="fill:#ffffff;fill-opacity:1;stroke:none" /></clipPath><clipPath
       clipPathUnits="userSpaceOnUse"
       id="clipPath10152"><rect
         style="fill:#555753;fill-opacity:1;stroke:#555753;stroke-width:1.83322382;stroke-miterlimit:4;stroke-dasharray:none;stroke-dashoffset:0;stroke-opacity:1"
         id="rect10154"
         width="718.58722"
         height="140.17392"
         x="-37.134048"
         y="754.14667" /></clipPath><marker
       orient="auto"
       refY="0"
       refX="0"
       id="Arrow2Mend-0"
       style="overflow:visible"><path
         id="path45132-982"
         style="font-size:12px;fill-rule:evenodd;stroke-width:0.625;stroke-linejoin:round"
         d="M 8.7185878,4.0337352 -2.2072895,0.01601326 8.7185884,-4.0017078 c -1.7454984,2.3720609 -1.7354408,5.6174519 -6e-7,8.035443 z"
         transform="scale(-0.6)" /></marker><marker
       orient="auto"
       refY="0"
       refX="0"
       id="DotM-2"
       style="overflow:visible"><path
         id="path14329-95"
         d="m -2.5,-1 c 0,2.76 -2.24,5 -5,5 -2.76,0 -5,-2.24 -5,-5 0,-2.76 2.24,-5 5,-5 2.76,0 5,2.24 5,5 z"
         style="fill-rule:evenodd;stroke:#000000;stroke-width:1.00000003pt;marker-start:none;marker-end:none"
         transform="matrix(0.4,0,0,0.4,2.96,0.4)" /></marker><marker
       orient="auto"
       refY="0"
       refX="0"
       id="Arrow2Mend-2"
       style="overflow:visible"><path
         id="path45132-98"
         style="font-size:12px;fill-rule:evenodd;stroke-width:0.625;stroke-linejoin:round"
         d="M 8.7185878,4.0337352 -2.2072895,0.01601326 8.7185884,-4.0017078 c -1.7454984,2.3720609 -1.7354408,5.6174519 -6e-7,8.035443 z"
         transform="scale(-0.6)" /></marker><marker
       orient="auto"
       refY="0"
       refX="0"
       id="DotM-5"
       style="overflow:visible"><path
         id="path14329-1"
         d="m -2.5,-1 c 0,2.76 -2.24,5 -5,5 -2.76,0 -5,-2.24 -5,-5 0,-2.76 2.24,-5 5,-5 2.76,0 5,2.24 5,5 z"
         style="fill-rule:evenodd;stroke:#000000;stroke-width:1.00000003pt;marker-start:none;marker-end:none"
         transform="matrix(0.4,0,0,0.4,2.96,0.4)" /></marker><marker
       orient="auto"
       refY="0"
       refX="0"
       id="Arrow2Mend-75"
       style="overflow:visible"><path
         id="path45132-9"
         style="font-size:12px;fill-rule:evenodd;stroke-width:0.625;stroke-linejoin:round"
         d="M 8.7185878,4.0337352 -2.2072895,0.01601326 8.7185884,-4.0017078 c -1.7454984,2.3720609 -1.7354408,5.6174519 -6e-7,8.035443 z"
         transform="scale(-0.6)" /></marker><marker
       orient="auto"
       refY="0"
       refX="0"
       id="DotM-466"
       style="overflow:visible"><path
         id="path14329-32"
         d="m -2.5,-1 c 0,2.76 -2.24,5 -5,5 -2.76,0 -5,-2.24 -5,-5 0,-2.76 2.24,-5 5,-5 2.76,0 5,2.24 5,5 z"
         style="fill-rule:evenodd;stroke:#000000;stroke-width:1.00000003pt;marker-start:none;marker-end:none"
         transform="matrix(0.4,0,0,0.4,2.96,0.4)" /></marker><marker
       orient="auto"
       refY="0"
       refX="0"
       id="marker32938"
       style="overflow:visible"><path
         id="path32940"
         style="font-size:12px;fill-rule:evenodd;stroke-width:0.625;stroke-linejoin:round"
         d="M 8.7185878,4.0337352 -2.2072895,0.01601326 8.7185884,-4.0017078 c -1.7454984,2.3720609 -1.7354408,5.6174519 -6e-7,8.035443 z"
         transform="scale(-0.6)" /></marker><marker
       orient="auto"
       refY="0"
       refX="0"
       id="marker32934"
       style="overflow:visible"><path
         id="path32936"
         d="m -2.5,-1 c 0,2.76 -2.24,5 -5,5 -2.76,0 -5,-2.24 -5,-5 0,-2.76 2.24,-5 5,-5 2.76,0 5,2.24 5,5 z"
         style="fill-rule:evenodd;stroke:#000000;stroke-width:1.00000003pt;marker-start:none;marker-end:none"
         transform="matrix(0.4,0,0,0.4,2.96,0.4)" /></marker><marker
       orient="auto"
       refY="0"
       refX="0"
       id="Arrow2Mend-7"
       style="overflow:visible"><path
         id="path45132-2"
         style="font-size:12px;fill-rule:evenodd;stroke-width:0.625;stroke-linejoin:round"
         d="M 8.7185878,4.0337352 -2.2072895,0.01601326 8.7185884,-4.0017078 c -1.7454984,2.3720609 -1.7354408,5.6174519 -6e-7,8.035443 z"
         transform="scale(-0.6)" /></marker><marker
       orient="auto"
       refY="0"
       refX="0"
       id="DotM-46"
       style="overflow:visible"><path
         id="path14329-9"
         d="m -2.5,-1 c 0,2.76 -2.24,5 -5,5 -2.76,0 -5,-2.24 -5,-5 0,-2.76 2.24,-5 5,-5 2.76,0 5,2.24 5,5 z"
         style="fill-rule:evenodd;stroke:#000000;stroke-width:1.00000003pt;marker-start:none;marker-end:none"
         transform="matrix(0.4,0,0,0.4,2.96,0.4)" /></marker><marker
       orient="auto"
       refY="0"
       refX="0"
       id="Arrow2Mend-3"
       style="overflow:visible"><path
         id="path45132-3"
         style="font-size:12px;fill-rule:evenodd;stroke-width:0.625;stroke-linejoin:round"
         d="M 8.7185878,4.0337352 -2.2072895,0.01601326 8.7185884,-4.0017078 c -1.7454984,2.3720609 -1.7354408,5.6174519 -6e-7,8.035443 z"
         transform="scale(-0.6)" /></marker><marker
       orient="auto"
       refY="0"
       refX="0"
       id="DotM-42"
       style="overflow:visible"><path
         id="path14329-3"
         d="m -2.5,-1 c 0,2.76 -2.24,5 -5,5 -2.76,0 -5,-2.24 -5,-5 0,-2.76 2.24,-5 5,-5 2.76,0 5,2.24 5,5 z"
         style="fill-rule:evenodd;stroke:#000000;stroke-width:1.00000003pt;marker-start:none;marker-end:none"
         transform="matrix(0.4,0,0,0.4,2.96,0.4)" /></marker><marker
       orient="auto"
       refY="0"
       refX="0"
       id="Arrow2Mend-9"
       style="overflow:visible"><path
         id="path45132-4"
         style="font-size:12px;fill-rule:evenodd;stroke-width:0.625;stroke-linejoin:round"
         d="M 8.7185878,4.0337352 -2.2072895,0.01601326 8.7185884,-4.0017078 c -1.7454984,2.3720609 -1.7354408,5.6174519 -6e-7,8.035443 z"
         transform="scale(-0.6)" /></marker><marker
       orient="auto"
       refY="0"
       refX="0"
       id="DotM-4"
       style="overflow:visible"><path
         id="path14329-8"
         d="m -2.5,-1 c 0,2.76 -2.24,5 -5,5 -2.76,0 -5,-2.24 -5,-5 0,-2.76 2.24,-5 5,-5 2.76,0 5,2.24 5,5 z"
         style="fill-rule:evenodd;stroke:#000000;stroke-width:1.00000003pt;marker-start:none;marker-end:none"
         transform="matrix(0.4,0,0,0.4,2.96,0.4)" /></marker><clipPath
       clipPathUnits="userSpaceOnUse"
       id="clipPath6483-5"><rect
         style="fill:#ffffff;fill-opacity:1;stroke:none"
         id="rect6485-2"
         width="548"
         height="280"
         x="67.578148"
         y="187.65627" /></clipPath><clipPath
       clipPathUnits="userSpaceOnUse"
       id="clipPath6483-1-7-3-0"><rect
         style="fill:#ffffff;fill-opacity:1;stroke:none"
         id="rect6485-6-4-5-6"
         width="548"
         height="280"
         x="67.578148"
         y="187.65627" /></clipPath><marker
       orient="auto"
       refY="0"
       refX="0"
       id="Arrow2Lend-0"
       style="overflow:visible"><path
         id="path45126-6"
         style="font-size:12px;fill-rule:evenodd;stroke-width:0.625;stroke-linejoin:round"
         d="M 8.7185878,4.0337352 -2.2072895,0.01601326 8.7185884,-4.0017078 c -1.7454984,2.3720609 -1.7354408,5.6174519 -6e-7,8.035443 z"
         transform="matrix(-1.1,0,0,-1.1,-1.1,0)" /></marker><clipPath
       clipPathUnits="userSpaceOnUse"
       id="clipPath6483-1-7-3-9"><rect
         style="fill:#ffffff;fill-opacity:1;stroke:none"
         id="rect6485-6-4-5-8"
         width="548"
         height="280"
         x="67.578148"
         y="187.65627" /></clipPath><clipPath
       clipPathUnits="userSpaceOnUse"
       id="clipPath6483-1-7-3"><rect
         style="fill:#ffffff;fill-opacity:1;stroke:none"
         id="rect6485-6-4-5"
         width="548"
         height="280"
         x="67.578148"
         y="187.65627" /></clipPath><clipPath
       clipPathUnits="userSpaceOnUse"
       id="clipPath6483-1-7"><rect
         style="fill:#ffffff;fill-opacity:1;stroke:none"
         id="rect6485-6-4"
         width="548"
         height="280"
         x="67.578148"
         y="187.65627" /></clipPath><clipPath
       clipPathUnits="userSpaceOnUse"
       id="clipPath6483-1"><rect
         style="fill:#ffffff;fill-opacity:1;stroke:none"
         id="rect6485-6"
         width="548"
         height="280"
         x="67.578148"
         y="187.65627" /></clipPath><clipPath
       clipPathUnits="userSpaceOnUse"
       id="clipPath6483"><rect
         style="fill:#ffffff;fill-opacity:1;stroke:none"
         id="rect6485"
         width="548"
         height="280"
         x="67.578148"
         y="187.65627" /></clipPath><clipPath
       id="clipPath22"
       clipPathUnits="userSpaceOnUse"><path
         id="path24"
         d="M 0,792 H 1224 V 0 H 0 Z" /></clipPath><clipPath
       clipPathUnits="userSpaceOnUse"
       id="clipPath3169"><rect
         style="fill:#f5f5f4;fill-opacity:1;stroke:#888a85;stroke-width:2;stroke-miterlimit:4;stroke-dasharray:none;stroke-dashoffset:0;stroke-opacity:1"
         id="rect3171"
         width="748.77557"
         height="428.80975"
         x="48.992397"
         y="105.34417" /></clipPath><marker
       orient="auto"
       refY="0"
       refX="0"
       id="Arrow2Lend"
       style="overflow:visible"><path
         id="path45126"
         style="font-size:12px;fill-rule:evenodd;stroke-width:0.625;stroke-linejoin:round"
         d="M 8.7185878,4.0337352 -2.2072895,0.01601326 8.7185884,-4.0017078 c -1.7454984,2.3720609 -1.7354408,5.6174519 -6e-7,8.035443 z"
         transform="matrix(-1.1,0,0,-1.1,-1.1,0)" /></marker><marker
       orient="auto"
       refY="0"
       refX="0"
       id="Arrow2Mend"
       style="overflow:visible"><path
         id="path45132"
         style="font-size:12px;fill-rule:evenodd;stroke-width:0.625;stroke-linejoin:round"
         d="M 8.7185878,4.0337352 -2.2072895,0.01601326 8.7185884,-4.0017078 c -1.7454984,2.3720609 -1.7354408,5.6174519 -6e-7,8.035443 z"
         transform="scale(-0.6)" /></marker><marker
       orient="auto"
       refY="0"
       refX="0"
       id="DotL"
       style="overflow:visible"><path
         id="path14326"
         d="m -2.5,-1 c 0,2.76 -2.24,5 -5,5 -2.76,0 -5,-2.24 -5,-5 0,-2.76 2.24,-5 5,-5 2.76,0 5,2.24 5,5 z"
         style="fill-rule:evenodd;stroke:#000000;stroke-width:1.00000003pt;marker-start:none;marker-end:none"
         transform="matrix(0.8,0,0,0.8,5.92,0.8)" /></marker><marker
       orient="auto"
       refY="0"
       refX="0"
       id="DotM"
       style="overflow:visible"><path
         id="path14329"
         d="m -2.5,-1 c 0,2.76 -2.24,5 -5,5 -2.76,0 -5,-2.24 -5,-5 0,-2.76 2.24,-5 5,-5 2.76,0 5,2.24 5,5 z"
         style="fill-rule:evenodd;stroke:#000000;stroke-width:1.00000003pt;marker-start:none;marker-end:none"
         transform="matrix(0.4,0,0,0.4,2.96,0.4)" /></marker></defs><flowRoot
     style="font-style:normal;font-weight:normal;font-size:40px;line-height:125%;font-family:Sans;letter-spacing:0px;word-spacing:0px;fill:#000000;fill-opacity:1;stroke:none;stroke-width:1px;stroke-linecap:butt;stroke-linejoin:miter;stroke-opacity:1"
     id="flowRoot1196"
     xml:space="preserve"><flowRegion
       id="flowRegion1198"><rect
         y="110.07627"
         x="103.41437"
         height="41.100582"
         width="44.812893"
         id="rect1200" /></flowRegion><flowPara
       id="flowPara1202">By </flowPara></flowRoot><path
     d="m 79.742082,50 c 0,16.426095 -13.315983,29.742076 -29.74208,29.742076 -16.426096,0 -29.742078,-13.315981 -29.742078,-29.742076 0,-16.426095 13.315982,-29.742076 29.742078,-29.742076 16.426097,0 29.74208,13.315981 29.74208,29.742076 z M 43.273722,1.3404788 c -1.611401,0 -2.908664,1.2972643 -2.908664,2.9086653 v 7.3928509 c -3.762436,0.934016 -7.383762,2.437282 -10.786296,4.484186 L 24.367411,10.91483 c -1.139428,-1.1394366 -2.981177,-1.1394366 -4.120613,0 l -9.453149,9.453148 c -1.1394378,1.139436 -1.1394378,2.981175 0,4.12061 L 16.005,29.699953 c -2.03089,3.392586 -3.439109,7.054972 -4.362994,10.786285 H 4.2491524 c -1.611401,0 -2.9086652,1.297263 -2.9086652,2.908655 v 13.33138 c 0,1.611402 1.2972642,2.908665 2.9086652,2.908665 h 7.2716616 c 0.933857,3.765785 2.435558,7.380898 4.484186,10.786285 l -5.211351,5.211365 c -1.1394378,1.139425 -1.1394378,2.981173 0,4.12061 l 9.453149,9.453138 c 1.139436,1.139458 2.981185,1.139458 4.120613,0 l 5.211351,-5.211342 c 3.417398,2.061093 7.023194,3.428644 10.786296,4.362997 v 7.392843 c 0,1.611421 1.297263,2.908687 2.908664,2.908687 h 13.331383 c 1.611389,0 2.908654,-1.297266 2.908654,-2.908687 v -7.392843 c 3.771143,-0.92936 7.375522,-2.316705 10.786291,-4.362997 l 5.211354,5.211342 c 1.139439,1.139458 2.981184,1.139458 4.12062,0 l 9.45314,-9.453138 c 1.139438,-1.139437 1.139438,-2.981185 0,-4.12061 L 83.873811,70.421223 C 85.924966,67.022 87.42185,63.377868 88.358009,59.634938 h 7.392856 c 1.611391,0 2.908648,-1.297263 2.908648,-2.908665 V 43.394902 c 0,-1.611401 -1.297257,-2.908664 -2.908648,-2.908664 h -7.392856 c -0.92838,-3.739739 -2.456288,-7.401344 -4.484198,-10.786285 l 5.211353,-5.211365 c 1.139438,-1.139435 1.139438,-2.981174 0,-4.12061 l -9.45314,-9.453148 c -1.139436,-1.1394366 -2.981181,-1.1394366 -4.12062,0 L 70.30005,16.126181 C 66.894377,14.082015 63.261581,12.569391 59.513759,11.641995 V 4.2491441 c 0,-1.611401 -1.297265,-2.9086653 -2.908654,-2.9086653 z"
     style="opacity:1;fill:#00b8d4;fill-opacity:1;stroke:#000000;stroke-width:0.0607778;stroke-linecap:butt;stroke-linejoin:miter;stroke-miterlimit:4;stroke-dasharray:none;stroke-opacity:1"
     id="path930" /><g
     id="layer1"><path
       id="path918"
       d="M 75.064838,49.999996 A 25.064835,25.064835 0 0 1 50.000004,75.064831 25.064835,25.064835 0 0 1 24.935169,49.999996 25.064835,25.064835 0 0 1 50.000004,24.935162 25.064835,25.064835 0 0 1 75.064838,49.999996 Z"
       style="opacity:1;fill:#006064;fill-opacity:1;stroke:#000000;stroke-width:0.12438377;stroke-linecap:butt;stroke-linejoin:miter;stroke-miterlimit:4;stroke-dasharray:none;stroke-opacity:1" /><g
       id="flowRoot920"
       style="font-style:normal;font-variant:normal;font-weight:normal;font-stretch:normal;font-size:39.99940109px;line-height:125%;font-family:'Arial Black';-inkscape-font-specification:'Arial Black, Normal';font-variant-ligatures:normal;font-variant-caps:normal;font-variant-numeric:normal;font-feature-settings:normal;text-align:center;letter-spacing:0px;word-spacing:0px;writing-mode:lr-tb;text-anchor:middle;fill:#e0f7fa;fill-opacity:1;stroke:none;stroke-width:1px;stroke-linecap:butt;stroke-linejoin:miter;stroke-opacity:1"
       transform="matrix(0.74824732,0,0,1.1311293,-27.528359,-114.01767)"
       aria-label="&lt;/&gt;"><path
         id="path1316"
         style=""
         d="m 95.957146,157.14195 -22.206699,-9.23814 v -5.78117 l 22.206699,-9.21861 v 6.93349 l -13.495892,5.19524 13.495892,5.21476 z" /><path
         id="path1318"
         style=""
         d="m 105.23435,130.20876 h 4.06244 l -7.18739,29.5894 h -4.023379 z" /><path
         id="path1320"
         style=""
         d="m 111.26942,157.14195 22.2067,-9.23814 v -5.78117 l -22.2067,-9.21861 v 6.93349 l 13.49589,5.19524 -13.49589,5.21476 z" /></g></g></svg>