<?xml version="1.0" encoding="UTF-8" standalone="no"?>
<svg
   xmlns:dc="http://purl.org/dc/elements/1.1/"
   xmlns:cc="http://creativecommons.org/ns#"
   xmlns:rdf="http://www.w3.org/1999/02/22-rdf-syntax-ns#"
   xmlns:svg="http://www.w3.org/2000/svg"
   xmlns="http://www.w3.org/2000/svg"
   xml:space="preserve"
   enable-background="new 0 0 32 32"
   viewBox="0 0 150 150"
   height="150"
   width="150"
   y="0px"
   x="0px"
   id="Layer_1"
   version="1.1"><metadata
     id="metadata7"><rdf:RDF><cc:Work
         rdf:about=""><dc:format>image/svg+xml</dc:format><dc:type
           rdf:resource="http://purl.org/dc/dcmitype/StillImage" /><dc:title></dc:title></cc:Work></rdf:RDF></metadata><defs
     id="defs5"><marker
       orient="auto"
       refY="0"
       refX="0"
       id="Arrow2Mend-5"
       style="overflow:visible"><path
         id="path45132-1"
         style="font-size:12px;fill-rule:evenodd;stroke-width:0.625;stroke-linejoin:round"
         d="M 8.7185878,4.0337352 -2.2072895,0.01601326 8.7185884,-4.0017078 c -1.7454984,2.3720609 -1.7354408,5.6174519 -6e-7,8.035443 z"
         transform="scale(-0.6)" /></marker><marker
       orient="auto"
       refY="0"
       refX="0"
       id="DotM-00"
       style="overflow:visible"><path
         id="path14329-2"
         d="m -2.5,-1 c 0,2.76 -2.24,5 -5,5 -2.76,0 -5,-2.24 -5,-5 0,-2.76 2.24,-5 5,-5 2.76,0 5,2.24 5,5 z"
         style="fill-rule:evenodd;stroke:#000000;stroke-width:1.00000003pt;marker-start:none;marker-end:none"
         transform="matrix(0.4,0,0,0.4,2.96,0.4)" /></marker><marker
       orient="auto"
       refY="0"
       refX="0"
       id="Arrow2Mend-07"
       style="overflow:visible"><path
         id="path45132-31"
         style="font-size:12px;fill-rule:evenodd;stroke-width:0.625;stroke-linejoin:round"
         d="M 8.7185878,4.0337352 -2.2072895,0.01601326 8.7185884,-4.0017078 c -1.7454984,2.3720609 -1.7354408,5.6174519 -6e-7,8.035443 z"
         transform="scale(-0.6)" /></marker><marker
       orient="auto"
       refY="0"
       refX="0"
       id="DotM-0"
       style="overflow:visible"><path
         id="path14329-94"
         d="m -2.5,-1 c 0,2.76 -2.24,5 -5,5 -2.76,0 -5,-2.24 -5,-5 0,-2.76 2.24,-5 5,-5 2.76,0 5,2.24 5,5 z"
         style="fill-rule:evenodd;stroke:#000000;stroke-width:1.00000003pt;marker-start:none;marker-end:none"
         transform="matrix(0.4,0,0,0.4,2.96,0.4)" /></marker><marker
       orient="auto"
       refY="0"
       refX="0"
       id="Arrow2Mend-6"
       style="overflow:visible"><path
         id="path45132-8"
         style="font-size:12px;fill-rule:evenodd;stroke-width:0.625;stroke-linejoin:round"
         d="M 8.7185878,4.0337352 -2.2072895,0.01601326 8.7185884,-4.0017078 c -1.7454984,2.3720609 -1.7354408,5.6174519 -6e-7,8.035443 z"
         transform="scale(-0.6)" /></marker><marker
       orient="auto"
       refY="0"
       refX="0"
       id="DotM-8"
       style="overflow:visible"><path
         id="path14329-91"
         d="m -2.5,-1 c 0,2.76 -2.24,5 -5,5 -2.76,0 -5,-2.24 -5,-5 0,-2.76 2.24,-5 5,-5 2.76,0 5,2.24 5,5 z"
         style="fill-rule:evenodd;stroke:#000000;stroke-width:1.00000003pt;marker-start:none;marker-end:none"
         transform="matrix(0.4,0,0,0.4,2.96,0.4)" /></marker><clipPath
       id="clipPath3169-2"
       clipPathUnits="userSpaceOnUse"><rect
         y="105.34417"
         x="48.992397"
         height="428.80975"
         width="748.77557"
         id="rect3171-7"
         style="fill:#f5f5f4;fill-opacity:1;stroke:#888a85;stroke-width:2;stroke-miterlimit:4;stroke-dasharray:none;stroke-dashoffset:0;stroke-opacity:1" /></clipPath><clipPath
       clipPathUnits="userSpaceOnUse"
       id="clipPath22-7"><path
         d="M 0,792 H 1224 V 0 H 0 Z"
         id="path24-2" /></clipPath><clipPath
       id="clipPath6483-7"
       clipPathUnits="userSpaceOnUse"><rect
         y="187.65627"
         x="67.578148"
         height="280"
         width="548"
         id="rect6485-5"
         style="fill:#ffffff;fill-opacity:1;stroke:none" /></clipPath><clipPath
       clipPathUnits="userSpaceOnUse"
       id="clipPath10152"><rect
         style="fill:#555753;fill-opacity:1;stroke:#555753;stroke-width:1.83322382;stroke-miterlimit:4;stroke-dasharray:none;stroke-dashoffset:0;stroke-opacity:1"
         id="rect10154"
         width="718.58722"
         height="140.17392"
         x="-37.134048"
         y="754.14667" /></clipPath><marker
       orient="auto"
       refY="0"
       refX="0"
       id="Arrow2Mend-0"
       style="overflow:visible"><path
         id="path45132-982"
         style="font-size:12px;fill-rule:evenodd;stroke-width:0.625;stroke-linejoin:round"
         d="M 8.7185878,4.0337352 -2.2072895,0.01601326 8.7185884,-4.0017078 c -1.7454984,2.3720609 -1.7354408,5.6174519 -6e-7,8.035443 z"
         transform="scale(-0.6)" /></marker><marker
       orient="auto"
       refY="0"
       refX="0"
       id="DotM-2"
       style="overflow:visible"><path
         id="path14329-95"
         d="m -2.5,-1 c 0,2.76 -2.24,5 -5,5 -2.76,0 -5,-2.24 -5,-5 0,-2.76 2.24,-5 5,-5 2.76,0 5,2.24 5,5 z"
         style="fill-rule:evenodd;stroke:#000000;stroke-width:1.00000003pt;marker-start:none;marker-end:none"
         transform="matrix(0.4,0,0,0.4,2.96,0.4)" /></marker><marker
       orient="auto"
       refY="0"
       refX="0"
       id="Arrow2Mend-2"
       style="overflow:visible"><path
         id="path45132-98"
         style="font-size:12px;fill-rule:evenodd;stroke-width:0.625;stroke-linejoin:round"
         d="M 8.7185878,4.0337352 -2.2072895,0.01601326 8.7185884,-4.0017078 c -1.7454984,2.3720609 -1.7354408,5.6174519 -6e-7,8.035443 z"
         transform="scale(-0.6)" /></marker><marker
       orient="auto"
       refY="0"
       refX="0"
       id="DotM-5"
       style="overflow:visible"><path
         id="path14329-1"
         d="m -2.5,-1 c 0,2.76 -2.24,5 -5,5 -2.76,0 -5,-2.24 -5,-5 0,-2.76 2.24,-5 5,-5 2.76,0 5,2.24 5,5 z"
         style="fill-rule:evenodd;stroke:#000000;stroke-width:1.00000003pt;marker-start:none;marker-end:none"
         transform="matrix(0.4,0,0,0.4,2.96,0.4)" /></marker><marker
       orient="auto"
       refY="0"
       refX="0"
       id="Arrow2Mend-75"
       style="overflow:visible"><path
         id="path45132-9"
         style="font-size:12px;fill-rule:evenodd;stroke-width:0.625;stroke-linejoin:round"
         d="M 8.7185878,4.0337352 -2.2072895,0.01601326 8.7185884,-4.0017078 c -1.7454984,2.3720609 -1.7354408,5.6174519 -6e-7,8.035443 z"
         transform="scale(-0.6)" /></marker><marker
       orient="auto"
       refY="0"
       refX="0"
       id="DotM-466"
       style="overflow:visible"><path
         id="path14329-32"
         d="m -2.5,-1 c 0,2.76 -2.24,5 -5,5 -2.76,0 -5,-2.24 -5,-5 0,-2.76 2.24,-5 5,-5 2.76,0 5,2.24 5,5 z"
         style="fill-rule:evenodd;stroke:#000000;stroke-width:1.00000003pt;marker-start:none;marker-end:none"
         transform="matrix(0.4,0,0,0.4,2.96,0.4)" /></marker><marker
       orient="auto"
       refY="0"
       refX="0"
       id="marker32938"
       style="overflow:visible"><path
         id="path32940"
         style="font-size:12px;fill-rule:evenodd;stroke-width:0.625;stroke-linejoin:round"
         d="M 8.7185878,4.0337352 -2.2072895,0.01601326 8.7185884,-4.0017078 c -1.7454984,2.3720609 -1.7354408,5.6174519 -6e-7,8.035443 z"
         transform="scale(-0.6)" /></marker><marker
       orient="auto"
       refY="0"
       refX="0"
       id="marker32934"
       style="overflow:visible"><path
         id="path32936"
         d="m -2.5,-1 c 0,2.76 -2.24,5 -5,5 -2.76,0 -5,-2.24 -5,-5 0,-2.76 2.24,-5 5,-5 2.76,0 5,2.24 5,5 z"
         style="fill-rule:evenodd;stroke:#000000;stroke-width:1.00000003pt;marker-start:none;marker-end:none"
         transform="matrix(0.4,0,0,0.4,2.96,0.4)" /></marker><marker
       orient="auto"
       refY="0"
       refX="0"
       id="Arrow2Mend-7"
       style="overflow:visible"><path
         id="path45132-2"
         style="font-size:12px;fill-rule:evenodd;stroke-width:0.625;stroke-linejoin:round"
         d="M 8.7185878,4.0337352 -2.2072895,0.01601326 8.7185884,-4.0017078 c -1.7454984,2.3720609 -1.7354408,5.6174519 -6e-7,8.035443 z"
         transform="scale(-0.6)" /></marker><marker
       orient="auto"
       refY="0"
       refX="0"
       id="DotM-46"
       style="overflow:visible"><path
         id="path14329-9"
         d="m -2.5,-1 c 0,2.76 -2.24,5 -5,5 -2.76,0 -5,-2.24 -5,-5 0,-2.76 2.24,-5 5,-5 2.76,0 5,2.24 5,5 z"
         style="fill-rule:evenodd;stroke:#000000;stroke-width:1.00000003pt;marker-start:none;marker-end:none"
         transform="matrix(0.4,0,0,0.4,2.96,0.4)" /></marker><marker
       orient="auto"
       refY="0"
       refX="0"
       id="Arrow2Mend-3"
       style="overflow:visible"><path
         id="path45132-3"
         style="font-size:12px;fill-rule:evenodd;stroke-width:0.625;stroke-linejoin:round"
         d="M 8.7185878,4.0337352 -2.2072895,0.01601326 8.7185884,-4.0017078 c -1.7454984,2.3720609 -1.7354408,5.6174519 -6e-7,8.035443 z"
         transform="scale(-0.6)" /></marker><marker
       orient="auto"
       refY="0"
       refX="0"
       id="DotM-42"
       style="overflow:visible"><path
         id="path14329-3"
         d="m -2.5,-1 c 0,2.76 -2.24,5 -5,5 -2.76,0 -5,-2.24 -5,-5 0,-2.76 2.24,-5 5,-5 2.76,0 5,2.24 5,5 z"
         style="fill-rule:evenodd;stroke:#000000;stroke-width:1.00000003pt;marker-start:none;marker-end:none"
         transform="matrix(0.4,0,0,0.4,2.96,0.4)" /></marker><marker
       orient="auto"
       refY="0"
       refX="0"
       id="Arrow2Mend-9"
       style="overflow:visible"><path
         id="path45132-4"
         style="font-size:12px;fill-rule:evenodd;stroke-width:0.625;stroke-linejoin:round"
         d="M 8.7185878,4.0337352 -2.2072895,0.01601326 8.7185884,-4.0017078 c -1.7454984,2.3720609 -1.7354408,5.6174519 -6e-7,8.035443 z"
         transform="scale(-0.6)" /></marker><marker
       orient="auto"
       refY="0"
       refX="0"
       id="DotM-4"
       style="overflow:visible"><path
         id="path14329-8"
         d="m -2.5,-1 c 0,2.76 -2.24,5 -5,5 -2.76,0 -5,-2.24 -5,-5 0,-2.76 2.24,-5 5,-5 2.76,0 5,2.24 5,5 z"
         style="fill-rule:evenodd;stroke:#000000;stroke-width:1.00000003pt;marker-start:none;marker-end:none"
         transform="matrix(0.4,0,0,0.4,2.96,0.4)" /></marker><clipPath
       clipPathUnits="userSpaceOnUse"
       id="clipPath6483-5"><rect
         style="fill:#ffffff;fill-opacity:1;stroke:none"
         id="rect6485-2"
         width="548"
         height="280"
         x="67.578148"
         y="187.65627" /></clipPath><clipPath
       clipPathUnits="userSpaceOnUse"
       id="clipPath6483-1-7-3-0"><rect
         style="fill:#ffffff;fill-opacity:1;stroke:none"
         id="rect6485-6-4-5-6"
         width="548"
         height="280"
         x="67.578148"
         y="187.65627" /></clipPath><marker
       orient="auto"
       refY="0"
       refX="0"
       id="Arrow2Lend-0"
       style="overflow:visible"><path
         id="path45126-6"
         style="font-size:12px;fill-rule:evenodd;stroke-width:0.625;stroke-linejoin:round"
         d="M 8.7185878,4.0337352 -2.2072895,0.01601326 8.7185884,-4.0017078 c -1.7454984,2.3720609 -1.7354408,5.6174519 -6e-7,8.035443 z"
         transform="matrix(-1.1,0,0,-1.1,-1.1,0)" /></marker><clipPath
       clipPathUnits="userSpaceOnUse"
       id="clipPath6483-1-7-3-9"><rect
         style="fill:#ffffff;fill-opacity:1;stroke:none"
         id="rect6485-6-4-5-8"
         width="548"
         height="280"
         x="67.578148"
         y="187.65627" /></clipPath><clipPath
       clipPathUnits="userSpaceOnUse"
       id="clipPath6483-1-7-3"><rect
         style="fill:#ffffff;fill-opacity:1;stroke:none"
         id="rect6485-6-4-5"
         width="548"
         height="280"
         x="67.578148"
         y="187.65627" /></clipPath><clipPath
       clipPathUnits="userSpaceOnUse"
       id="clipPath6483-1-7"><rect
         style="fill:#ffffff;fill-opacity:1;stroke:none"
         id="rect6485-6-4"
         width="548"
         height="280"
         x="67.578148"
         y="187.65627" /></clipPath><clipPath
       clipPathUnits="userSpaceOnUse"
       id="clipPath6483-1"><rect
         style="fill:#ffffff;fill-opacity:1;stroke:none"
         id="rect6485-6"
         width="548"
         height="280"
         x="67.578148"
         y="187.65627" /></clipPath><clipPath
       clipPathUnits="userSpaceOnUse"
       id="clipPath6483"><rect
         style="fill:#ffffff;fill-opacity:1;stroke:none"
         id="rect6485"
         width="548"
         height="280"
         x="67.578148"
         y="187.65627" /></clipPath><clipPath
       id="clipPath22"
       clipPathUnits="userSpaceOnUse"><path
         id="path24"
         d="M 0,792 H 1224 V 0 H 0 Z" /></clipPath><clipPath
       clipPathUnits="userSpaceOnUse"
       id="clipPath3169"><rect
         style="fill:#f5f5f4;fill-opacity:1;stroke:#888a85;stroke-width:2;stroke-miterlimit:4;stroke-dasharray:none;stroke-dashoffset:0;stroke-opacity:1"
         id="rect3171"
         width="748.77557"
         height="428.80975"
         x="48.992397"
         y="105.34417" /></clipPath><marker
       orient="auto"
       refY="0"
       refX="0"
       id="Arrow2Lend"
       style="overflow:visible"><path
         id="path45126"
         style="font-size:12px;fill-rule:evenodd;stroke-width:0.625;stroke-linejoin:round"
         d="M 8.7185878,4.0337352 -2.2072895,0.01601326 8.7185884,-4.0017078 c -1.7454984,2.3720609 -1.7354408,5.6174519 -6e-7,8.035443 z"
         transform="matrix(-1.1,0,0,-1.1,-1.1,0)" /></marker><marker
       orient="auto"
       refY="0"
       refX="0"
       id="Arrow2Mend"
       style="overflow:visible"><path
         id="path45132"
         style="font-size:12px;fill-rule:evenodd;stroke-width:0.625;stroke-linejoin:round"
         d="M 8.7185878,4.0337352 -2.2072895,0.01601326 8.7185884,-4.0017078 c -1.7454984,2.3720609 -1.7354408,5.6174519 -6e-7,8.035443 z"
         transform="scale(-0.6)" /></marker><marker
       orient="auto"
       refY="0"
       refX="0"
       id="DotL"
       style="overflow:visible"><path
         id="path14326"
         d="m -2.5,-1 c 0,2.76 -2.24,5 -5,5 -2.76,0 -5,-2.24 -5,-5 0,-2.76 2.24,-5 5,-5 2.76,0 5,2.24 5,5 z"
         style="fill-rule:evenodd;stroke:#000000;stroke-width:1.00000003pt;marker-start:none;marker-end:none"
         transform="matrix(0.8,0,0,0.8,5.92,0.8)" /></marker><marker
       orient="auto"
       refY="0"
       refX="0"
       id="DotM"
       style="overflow:visible"><path
         id="path14329"
         d="m -2.5,-1 c 0,2.76 -2.24,5 -5,5 -2.76,0 -5,-2.24 -5,-5 0,-2.76 2.24,-5 5,-5 2.76,0 5,2.24 5,5 z"
         style="fill-rule:evenodd;stroke:#000000;stroke-width:1.00000003pt;marker-start:none;marker-end:none"
         transform="matrix(0.4,0,0,0.4,2.96,0.4)" /></marker></defs><flowRoot
     transform="translate(0,50)"
     style="font-style:normal;font-weight:normal;font-size:40px;line-height:125%;font-family:Sans;letter-spacing:0px;word-spacing:0px;fill:#000000;fill-opacity:1;stroke:none;stroke-width:1px;stroke-linecap:butt;stroke-linejoin:miter;stroke-opacity:1"
     id="flowRoot1196"
     xml:space="preserve"><flowRegion
       id="flowRegion1198"><rect
         y="110.07627"
         x="103.41437"
         height="41.100582"
         width="44.812893"
         id="rect1200" /></flowRegion><flowPara
       id="flowPara1202">By </flowPara></flowRoot><g
     transform="translate(0,50)"
     id="layer1"><g
       transform="matrix(1.1486012,0,0,1.1486012,-0.5842182,5.7838483)"
       id="g3286"><path
         id="path1045"
         d="M 112.02686,16.730045 C 113.16497,46.704324 80.417786,70.795925 52.146091,60.88704 23.193386,53.110648 9.8037688,14.721172 27.657278,-9.3685234 43.642906,-34.740044 84.271626,-36.178828 102.01192,-12.001645 c 6.45128,8.0868841 10.04068,18.3882766 10.01494,28.73169 z"
         style="opacity:1;fill:#006069;fill-opacity:1;stroke:#000000;stroke-width:0.0735592;stroke-linecap:butt;stroke-linejoin:miter;stroke-miterlimit:4;stroke-dasharray:none;stroke-opacity:1" /><path
         id="path918"
         d="M 65.804232,-26.87964 C 37.523697,-27.953339 14.793286,2.9434374 24.142358,29.617635 31.479582,56.934448 67.699349,69.566769 90.428603,52.723933 114.36818,37.642374 115.72669,-0.69234881 92.914704,-17.430657 85.284163,-23.517847 75.56394,-26.904439 65.804232,-26.87964 Z m 1.890044,17.5528505 c 1.677472,0.428457 5.852161,-1.2710245 4.446872,1.7843253 C 69.445046,9.2339885 66.748943,26.010441 64.05284,42.786894 62.085007,42.516086 58.186068,43.892261 59.707683,40.645407 62.369881,23.988008 65.032078,7.3306093 67.694276,-9.3267895 Z m -10.807555,4.7482222 c 0,4.0703677 0,8.1407354 0,12.2111031 -5.241206,3.0495332 -10.482413,6.0990652 -15.723619,9.1485982 5.241206,3.061695 10.482413,6.12339 15.723619,9.185085 0,4.046855 0,8.09371 0,12.140565 C 48.262731,32.68395 39.63874,27.261117 31.01475,21.838283 c 0,-3.394136 0,-6.788271 0,-10.182407 C 39.63874,6.2443949 48.262731,0.8329138 56.886721,-4.5785673 Z m 17.837455,0 c 8.623995,5.4114811 17.247989,10.8229622 25.871984,16.2344433 0,3.394136 0,6.788271 0,10.182407 -8.623995,5.422834 -17.247989,10.845667 -25.871984,16.268501 0,-4.046855 0,-8.09371 0,-12.140565 5.241206,-3.061695 10.482412,-6.12339 15.723618,-9.185085 -5.241206,-3.049533 -10.482412,-6.099065 -15.723618,-9.1485982 0,-4.0703677 0,-8.1407354 0,-12.2111031 z"
         style="opacity:1;fill:#00b8d4;fill-opacity:1;stroke:#000000;stroke-width:0.21641302;stroke-linecap:butt;stroke-linejoin:miter;stroke-miterlimit:4;stroke-dasharray:none;stroke-opacity:1" /><path
         id="path930"
         d="M 104.83543,16.730052 C 105.23184,35.43581 90.284935,52.835823 71.749329,55.310325 53.589201,58.477545 34.411294,46.799059 28.826176,29.248106 22.69819,12.173469 30.4852,-8.3886308 46.378003,-17.12891 c 15.855375,-9.513551 38.069168,-5.471739 49.544878,9.0322648 5.741429,6.9110166 8.948129,15.8412915 8.912549,24.8266972 z M 56.978672,-47.124957 c -4.224739,0.05412 -3.952472,4.774972 -3.816992,7.792877 -0.354553,2.601819 1.402908,6.777348 -2.757071,6.493635 -4.5043,-0.163755 -9.511544,6.92606 -12.931058,3.583021 -2.654709,-2.130906 -4.482549,-5.809441 -8.008987,-6.426731 -3.547349,0.636789 -5.395103,4.338086 -8.070872,6.488617 -2.576355,2.805974 -5.68934,5.197242 -7.879116,8.303474 -1.239774,3.998192 3.363679,6.059825 5.441509,8.742391 4.732873,2.7647152 -1.605375,7.0300247 -1.845486,10.9364461 -0.486092,4.1665959 -2.078276,6.4573198 -6.340428,5.456537 -3.0779922,0.1785908 -7.7826507,-1.0363736 -8.7424438,3.0458465 -0.1265643,6.3367224 -0.1303261,12.7000984 0,19.0367974 1.140725,4.33616 6.2296453,2.747828 9.5228138,3.045854 5.01393,-1.567245 4.469612,3.972845 6.153039,7.254674 1.310576,3.61843 5.367171,7.193967 0.679471,9.711346 -2.113581,2.513864 -6.773714,4.988461 -4.518023,8.834463 4.402337,4.58248 8.911611,9.095911 13.496155,13.496158 3.876515,2.261229 6.355797,-2.458129 8.89635,-4.579912 2.485687,-4.67559 6.052146,-0.506206 9.656698,0.667736 3.500198,1.533848 8.767764,1.237221 7.247449,6.284145 0.289477,3.276954 -1.273594,8.336237 3.045854,9.465353 6.336727,0.126565 12.700108,0.130327 19.036811,0 4.336136,-1.140754 2.747804,-6.229659 3.045832,-9.522828 -1.533709,-5.041324 3.808231,-4.66839 7.254671,-6.231497 3.6345,-1.257599 7.204556,-5.270583 9.711355,-0.601027 2.513865,2.113592 4.988477,6.773752 8.834487,4.51803 4.58247,-4.402344 9.09592,-8.911599 13.49614,-13.496158 2.2612,-3.876515 -2.45811,-6.355791 -4.5799,-8.896333 -4.6915,-2.495097 -0.4861,-6.069747 0.74146,-9.65769 1.60536,-3.477466 1.32032,-8.768416 6.36945,-7.24646 3.27695,-0.289477 8.33623,1.273595 9.46533,-3.045854 0.12656,-6.336721 0.13033,-12.700094 0,-19.03679 -1.14072,-4.3361641 -6.22965,-2.7478253 -9.52281,-3.0458539 -5.04232,1.5349985 -4.68428,-3.82876037 -6.31958,-7.2519145 -1.31293,-3.6171017 -5.35647,-7.1987136 -0.67199,-9.7141016 2.1136,-2.513862 6.77373,-4.98847 4.51804,-8.834481 -4.40234,-4.582471 -8.91158,-9.095931 -13.49614,-13.496155 -3.87653,-2.261203 -6.355827,2.458097 -8.896372,4.579905 -2.494249,4.689851 -6.074003,0.492677 -9.65844,-0.742335 -3.474683,-1.613006 -8.768294,-1.317316 -7.245701,-6.368574 -0.289477,-3.276944 1.273589,-8.3362 -3.045832,-9.465332 -6.079516,-0.177723 -12.179538,-0.02768 -18.265673,-0.07728 z"
         style="opacity:1;fill:#006069;fill-opacity:1;stroke:#000000;stroke-width:0.07975759;stroke-linecap:butt;stroke-linejoin:miter;stroke-miterlimit:4;stroke-dasharray:none;stroke-opacity:1" /></g></g></svg>