<svg enable-background="new 0 0 32 32" height="150" viewBox="0 0 150 150" width="150" xmlns="http://www.w3.org/2000/svg"><g stroke="#000" transform="matrix(1.1486012 0 0 1.1486012 -.584218 55.783848)"><path d="m112.02686 16.730045c1.13811 29.974279-31.609074 54.06588-59.880769 44.156995-28.952705-7.776392-42.3423222-46.165868-24.488813-70.2555634 15.985628-25.3715206 56.614348-26.8103046 74.354642-2.6331216 6.45128 8.0868841 10.04068 18.3882766 10.01494 28.73169z" fill="#006069" stroke-width=".073559"/><path d="m65.804232-26.87964c-28.280535-1.073699-51.010946 29.8230774-41.661874 56.497275 7.337224 27.316813 43.556991 39.949134 66.286245 23.106298 23.939577-15.081559 25.298087-53.41628181 2.486101-70.15459-7.630541-6.08719-17.350764-9.473782-27.110472-9.448983zm1.890044 17.5528505c1.677472.428457 5.852161-1.2710245 4.446872 1.7843253-2.696102 16.7764527-5.392205 33.5529052-8.088308 50.3293582-1.967833-.270808-5.866772 1.105367-4.345157-2.141487 2.662198-16.657399 5.324395-33.3147977 7.986593-49.9721965zm-10.807555 4.7482222v12.2111031c-5.241206 3.0495332-10.482413 6.0990652-15.723619 9.1485982 5.241206 3.061695 10.482413 6.12339 15.723619 9.185085v12.140565c-8.62399-5.422834-17.247981-10.845667-25.871971-16.268501 0-3.394136 0-6.788271 0-10.182407 8.62399-5.4114811 17.247981-10.8229622 25.871971-16.2344433zm17.837455 0c8.623995 5.4114811 17.247989 10.8229622 25.871984 16.2344433v10.182407c-8.623995 5.422834-17.247989 10.845667-25.871984 16.268501 0-4.046855 0-8.09371 0-12.140565l15.723618-9.185085c-5.241206-3.049533-10.482412-6.099065-15.723618-9.1485982 0-4.0703677 0-8.1407354 0-12.2111031z" fill="#00b8d4" stroke-width=".216413"/><path d="m104.83543 16.730052c.39641 18.705758-14.550495 36.105771-33.086101 38.580273-18.160128 3.16722-37.338035-8.511266-42.923153-26.062219-6.127986-17.074637 1.659024-37.6367368 17.551827-46.377016 15.855375-9.513551 38.069168-5.471739 49.544878 9.0322648 5.741429 6.9110166 8.948129 15.8412915 8.912549 24.8266972zm-47.856758-63.855009c-4.224739.05412-3.952472 4.774972-3.816992 7.792877-.354553 2.601819 1.402908 6.777348-2.757071 6.493635-4.5043-.163755-9.511544 6.92606-12.931058 3.583021-2.654709-2.130906-4.482549-5.809441-8.008987-6.426731-3.547349.636789-5.395103 4.338086-8.070872 6.488617-2.576355 2.805974-5.68934 5.197242-7.879116 8.303474-1.239774 3.998192 3.363679 6.059825 5.441509 8.742391 4.732873 2.7647152-1.605375 7.0300247-1.845486 10.9364461-.486092 4.1665959-2.078276 6.4573198-6.340428 5.456537-3.0779922.1785908-7.7826507-1.0363736-8.7424438 3.0458465-.1265643 6.3367224-.1303261 12.7000984 0 19.0367974 1.140725 4.33616 6.2296453 2.747828 9.5228138 3.045854 5.01393-1.567245 4.469612 3.972845 6.153039 7.254674 1.310576 3.61843 5.367171 7.193967.679471 9.711346-2.113581 2.513864-6.773714 4.988461-4.518023 8.834463 4.402337 4.58248 8.911611 9.095911 13.496155 13.496158 3.876515 2.261229 6.355797-2.458129 8.89635-4.579912 2.485687-4.67559 6.052146-.506206 9.656698.667736 3.500198 1.533848 8.767764 1.237221 7.247449 6.284145.289477 3.276954-1.273594 8.336237 3.045854 9.465353 6.336727.126565 12.700108.130327 19.036811 0 4.336136-1.140754 2.747804-6.229659 3.045832-9.522828-1.533709-5.041324 3.808231-4.66839 7.254671-6.231497 3.6345-1.257599 7.204556-5.270583 9.711355-.601027 2.513865 2.113592 4.988477 6.773752 8.834487 4.51803 4.58247-4.402344 9.09592-8.911599 13.49614-13.496158 2.2612-3.876515-2.45811-6.355791-4.5799-8.896333-4.6915-2.495097-.4861-6.069747.74146-9.65769 1.60536-3.477466 1.32032-8.768416 6.36945-7.24646 3.27695-.289477 8.33623 1.273595 9.46533-3.045854.12656-6.336721.13033-12.700094 0-19.03679-1.14072-4.3361641-6.22965-2.7478253-9.52281-3.0458539-5.04232 1.5349985-4.68428-3.82876037-6.31958-7.2519145-1.31293-3.6171017-5.35647-7.1987136-.67199-9.7141016 2.1136-2.513862 6.77373-4.98847 4.51804-8.834481-4.40234-4.582471-8.91158-9.095931-13.49614-13.496155-3.87653-2.261203-6.355827 2.458097-8.896372 4.579905-2.494249 4.689851-6.074003.492677-9.65844-.742335-3.474683-1.613006-8.768294-1.317316-7.245701-6.368574-.289477-3.276944 1.273589-8.3362-3.045832-9.465332-6.079516-.177723-12.179538-.02768-18.265673-.07728z" fill="#006069" stroke-width=".079758"/></g></svg>