<?xml version="1.0" encoding="UTF-8" standalone="no"?>
<svg
   xmlns:dc="http://purl.org/dc/elements/1.1/"
   xmlns:cc="http://creativecommons.org/ns#"
   xmlns:rdf="http://www.w3.org/1999/02/22-rdf-syntax-ns#"
   xmlns:svg="http://www.w3.org/2000/svg"
   xmlns="http://www.w3.org/2000/svg"
   xml:space="preserve"
   enable-background="new 0 0 32 32"
   viewBox="0 0 150 150"
   height="150"
   width="150"
   y="0px"
   x="0px"
   id="Layer_1"
   version="1.1"><metadata
     id="metadata7"><rdf:RDF><cc:Work
         rdf:about=""><dc:format>image/svg+xml</dc:format><dc:type
           rdf:resource="http://purl.org/dc/dcmitype/StillImage" /><dc:title></dc:title></cc:Work></rdf:RDF></metadata><defs
     id="defs5"><marker
       orient="auto"
       refY="0"
       refX="0"
       id="Arrow2Mend-5"
       style="overflow:visible"><path
         id="path45132-1"
         style="font-size:12px;fill-rule:evenodd;stroke-width:0.625;stroke-linejoin:round"
         d="M 8.7185878,4.0337352 -2.2072895,0.01601326 8.7185884,-4.0017078 c -1.7454984,2.3720609 -1.7354408,5.6174519 -6e-7,8.035443 z"
         transform="scale(-0.6)" /></marker><marker
       orient="auto"
       refY="0"
       refX="0"
       id="DotM-00"
       style="overflow:visible"><path
         id="path14329-2"
         d="m -2.5,-1 c 0,2.76 -2.24,5 -5,5 -2.76,0 -5,-2.24 -5,-5 0,-2.76 2.24,-5 5,-5 2.76,0 5,2.24 5,5 z"
         style="fill-rule:evenodd;stroke:#000000;stroke-width:1.00000003pt;marker-start:none;marker-end:none"
         transform="matrix(0.4,0,0,0.4,2.96,0.4)" /></marker><marker
       orient="auto"
       refY="0"
       refX="0"
       id="Arrow2Mend-07"
       style="overflow:visible"><path
         id="path45132-31"
         style="font-size:12px;fill-rule:evenodd;stroke-width:0.625;stroke-linejoin:round"
         d="M 8.7185878,4.0337352 -2.2072895,0.01601326 8.7185884,-4.0017078 c -1.7454984,2.3720609 -1.7354408,5.6174519 -6e-7,8.035443 z"
         transform="scale(-0.6)" /></marker><marker
       orient="auto"
       refY="0"
       refX="0"
       id="DotM-0"
       style="overflow:visible"><path
         id="path14329-94"
         d="m -2.5,-1 c 0,2.76 -2.24,5 -5,5 -2.76,0 -5,-2.24 -5,-5 0,-2.76 2.24,-5 5,-5 2.76,0 5,2.24 5,5 z"
         style="fill-rule:evenodd;stroke:#000000;stroke-width:1.00000003pt;marker-start:none;marker-end:none"
         transform="matrix(0.4,0,0,0.4,2.96,0.4)" /></marker><marker
       orient="auto"
       refY="0"
       refX="0"
       id="Arrow2Mend-6"
       style="overflow:visible"><path
         id="path45132-8"
         style="font-size:12px;fill-rule:evenodd;stroke-width:0.625;stroke-linejoin:round"
         d="M 8.7185878,4.0337352 -2.2072895,0.01601326 8.7185884,-4.0017078 c -1.7454984,2.3720609 -1.7354408,5.6174519 -6e-7,8.035443 z"
         transform="scale(-0.6)" /></marker><marker
       orient="auto"
       refY="0"
       refX="0"
       id="DotM-8"
       style="overflow:visible"><path
         id="path14329-91"
         d="m -2.5,-1 c 0,2.76 -2.24,5 -5,5 -2.76,0 -5,-2.24 -5,-5 0,-2.76 2.24,-5 5,-5 2.76,0 5,2.24 5,5 z"
         style="fill-rule:evenodd;stroke:#000000;stroke-width:1.00000003pt;marker-start:none;marker-end:none"
         transform="matrix(0.4,0,0,0.4,2.96,0.4)" /></marker><clipPath
       id="clipPath3169-2"
       clipPathUnits="userSpaceOnUse"><rect
         y="105.34417"
         x="48.992397"
         height="428.80975"
         width="748.77557"
         id="rect3171-7"
         style="fill:#f5f5f4;fill-opacity:1;stroke:#888a85;stroke-width:2;stroke-miterlimit:4;stroke-dasharray:none;stroke-dashoffset:0;stroke-opacity:1" /></clipPath><clipPath
       clipPathUnits="userSpaceOnUse"
       id="clipPath22-7"><path
         d="M 0,792 H 1224 V 0 H 0 Z"
         id="path24-2" /></clipPath><clipPath
       id="clipPath6483-7"
       clipPathUnits="userSpaceOnUse"><rect
         y="187.65627"
         x="67.578148"
         height="280"
         width="548"
         id="rect6485-5"
         style="fill:#ffffff;fill-opacity:1;stroke:none" /></clipPath><clipPath
       clipPathUnits="userSpaceOnUse"
       id="clipPath10152"><rect
         style="fill:#555753;fill-opacity:1;stroke:#555753;stroke-width:1.83322382;stroke-miterlimit:4;stroke-dasharray:none;stroke-dashoffset:0;stroke-opacity:1"
         id="rect10154"
         width="718.58722"
         height="140.17392"
         x="-37.134048"
         y="754.14667" /></clipPath><marker
       orient="auto"
       refY="0"
       refX="0"
       id="Arrow2Mend-0"
       style="overflow:visible"><path
         id="path45132-982"
         style="font-size:12px;fill-rule:evenodd;stroke-width:0.625;stroke-linejoin:round"
         d="M 8.7185878,4.0337352 -2.2072895,0.01601326 8.7185884,-4.0017078 c -1.7454984,2.3720609 -1.7354408,5.6174519 -6e-7,8.035443 z"
         transform="scale(-0.6)" /></marker><marker
       orient="auto"
       refY="0"
       refX="0"
       id="DotM-2"
       style="overflow:visible"><path
         id="path14329-95"
         d="m -2.5,-1 c 0,2.76 -2.24,5 -5,5 -2.76,0 -5,-2.24 -5,-5 0,-2.76 2.24,-5 5,-5 2.76,0 5,2.24 5,5 z"
         style="fill-rule:evenodd;stroke:#000000;stroke-width:1.00000003pt;marker-start:none;marker-end:none"
         transform="matrix(0.4,0,0,0.4,2.96,0.4)" /></marker><marker
       orient="auto"
       refY="0"
       refX="0"
       id="Arrow2Mend-2"
       style="overflow:visible"><path
         id="path45132-98"
         style="font-size:12px;fill-rule:evenodd;stroke-width:0.625;stroke-linejoin:round"
         d="M 8.7185878,4.0337352 -2.2072895,0.01601326 8.7185884,-4.0017078 c -1.7454984,2.3720609 -1.7354408,5.6174519 -6e-7,8.035443 z"
         transform="scale(-0.6)" /></marker><marker
       orient="auto"
       refY="0"
       refX="0"
       id="DotM-5"
       style="overflow:visible"><path
         id="path14329-1"
         d="m -2.5,-1 c 0,2.76 -2.24,5 -5,5 -2.76,0 -5,-2.24 -5,-5 0,-2.76 2.24,-5 5,-5 2.76,0 5,2.24 5,5 z"
         style="fill-rule:evenodd;stroke:#000000;stroke-width:1.00000003pt;marker-start:none;marker-end:none"
         transform="matrix(0.4,0,0,0.4,2.96,0.4)" /></marker><marker
       orient="auto"
       refY="0"
       refX="0"
       id="Arrow2Mend-75"
       style="overflow:visible"><path
         id="path45132-9"
         style="font-size:12px;fill-rule:evenodd;stroke-width:0.625;stroke-linejoin:round"
         d="M 8.7185878,4.0337352 -2.2072895,0.01601326 8.7185884,-4.0017078 c -1.7454984,2.3720609 -1.7354408,5.6174519 -6e-7,8.035443 z"
         transform="scale(-0.6)" /></marker><marker
       orient="auto"
       refY="0"
       refX="0"
       id="DotM-466"
       style="overflow:visible"><path
         id="path14329-32"
         d="m -2.5,-1 c 0,2.76 -2.24,5 -5,5 -2.76,0 -5,-2.24 -5,-5 0,-2.76 2.24,-5 5,-5 2.76,0 5,2.24 5,5 z"
         style="fill-rule:evenodd;stroke:#000000;stroke-width:1.00000003pt;marker-start:none;marker-end:none"
         transform="matrix(0.4,0,0,0.4,2.96,0.4)" /></marker><marker
       orient="auto"
       refY="0"
       refX="0"
       id="marker32938"
       style="overflow:visible"><path
         id="path32940"
         style="font-size:12px;fill-rule:evenodd;stroke-width:0.625;stroke-linejoin:round"
         d="M 8.7185878,4.0337352 -2.2072895,0.01601326 8.7185884,-4.0017078 c -1.7454984,2.3720609 -1.7354408,5.6174519 -6e-7,8.035443 z"
         transform="scale(-0.6)" /></marker><marker
       orient="auto"
       refY="0"
       refX="0"
       id="marker32934"
       style="overflow:visible"><path
         id="path32936"
         d="m -2.5,-1 c 0,2.76 -2.24,5 -5,5 -2.76,0 -5,-2.24 -5,-5 0,-2.76 2.24,-5 5,-5 2.76,0 5,2.24 5,5 z"
         style="fill-rule:evenodd;stroke:#000000;stroke-width:1.00000003pt;marker-start:none;marker-end:none"
         transform="matrix(0.4,0,0,0.4,2.96,0.4)" /></marker><marker
       orient="auto"
       refY="0"
       refX="0"
       id="Arrow2Mend-7"
       style="overflow:visible"><path
         id="path45132-2"
         style="font-size:12px;fill-rule:evenodd;stroke-width:0.625;stroke-linejoin:round"
         d="M 8.7185878,4.0337352 -2.2072895,0.01601326 8.7185884,-4.0017078 c -1.7454984,2.3720609 -1.7354408,5.6174519 -6e-7,8.035443 z"
         transform="scale(-0.6)" /></marker><marker
       orient="auto"
       refY="0"
       refX="0"
       id="DotM-46"
       style="overflow:visible"><path
         id="path14329-9"
         d="m -2.5,-1 c 0,2.76 -2.24,5 -5,5 -2.76,0 -5,-2.24 -5,-5 0,-2.76 2.24,-5 5,-5 2.76,0 5,2.24 5,5 z"
         style="fill-rule:evenodd;stroke:#000000;stroke-width:1.00000003pt;marker-start:none;marker-end:none"
         transform="matrix(0.4,0,0,0.4,2.96,0.4)" /></marker><marker
       orient="auto"
       refY="0"
       refX="0"
       id="Arrow2Mend-3"
       style="overflow:visible"><path
         id="path45132-3"
         style="font-size:12px;fill-rule:evenodd;stroke-width:0.625;stroke-linejoin:round"
         d="M 8.7185878,4.0337352 -2.2072895,0.01601326 8.7185884,-4.0017078 c -1.7454984,2.3720609 -1.7354408,5.6174519 -6e-7,8.035443 z"
         transform="scale(-0.6)" /></marker><marker
       orient="auto"
       refY="0"
       refX="0"
       id="DotM-42"
       style="overflow:visible"><path
         id="path14329-3"
         d="m -2.5,-1 c 0,2.76 -2.24,5 -5,5 -2.76,0 -5,-2.24 -5,-5 0,-2.76 2.24,-5 5,-5 2.76,0 5,2.24 5,5 z"
         style="fill-rule:evenodd;stroke:#000000;stroke-width:1.00000003pt;marker-start:none;marker-end:none"
         transform="matrix(0.4,0,0,0.4,2.96,0.4)" /></marker><marker
       orient="auto"
       refY="0"
       refX="0"
       id="Arrow2Mend-9"
       style="overflow:visible"><path
         id="path45132-4"
         style="font-size:12px;fill-rule:evenodd;stroke-width:0.625;stroke-linejoin:round"
         d="M 8.7185878,4.0337352 -2.2072895,0.01601326 8.7185884,-4.0017078 c -1.7454984,2.3720609 -1.7354408,5.6174519 -6e-7,8.035443 z"
         transform="scale(-0.6)" /></marker><marker
       orient="auto"
       refY="0"
       refX="0"
       id="DotM-4"
       style="overflow:visible"><path
         id="path14329-8"
         d="m -2.5,-1 c 0,2.76 -2.24,5 -5,5 -2.76,0 -5,-2.24 -5,-5 0,-2.76 2.24,-5 5,-5 2.76,0 5,2.24 5,5 z"
         style="fill-rule:evenodd;stroke:#000000;stroke-width:1.00000003pt;marker-start:none;marker-end:none"
         transform="matrix(0.4,0,0,0.4,2.96,0.4)" /></marker><clipPath
       clipPathUnits="userSpaceOnUse"
       id="clipPath6483-5"><rect
         style="fill:#ffffff;fill-opacity:1;stroke:none"
         id="rect6485-2"
         width="548"
         height="280"
         x="67.578148"
         y="187.65627" /></clipPath><clipPath
       clipPathUnits="userSpaceOnUse"
       id="clipPath6483-1-7-3-0"><rect
         style="fill:#ffffff;fill-opacity:1;stroke:none"
         id="rect6485-6-4-5-6"
         width="548"
         height="280"
         x="67.578148"
         y="187.65627" /></clipPath><marker
       orient="auto"
       refY="0"
       refX="0"
       id="Arrow2Lend-0"
       style="overflow:visible"><path
         id="path45126-6"
         style="font-size:12px;fill-rule:evenodd;stroke-width:0.625;stroke-linejoin:round"
         d="M 8.7185878,4.0337352 -2.2072895,0.01601326 8.7185884,-4.0017078 c -1.7454984,2.3720609 -1.7354408,5.6174519 -6e-7,8.035443 z"
         transform="matrix(-1.1,0,0,-1.1,-1.1,0)" /></marker><clipPath
       clipPathUnits="userSpaceOnUse"
       id="clipPath6483-1-7-3-9"><rect
         style="fill:#ffffff;fill-opacity:1;stroke:none"
         id="rect6485-6-4-5-8"
         width="548"
         height="280"
         x="67.578148"
         y="187.65627" /></clipPath><clipPath
       clipPathUnits="userSpaceOnUse"
       id="clipPath6483-1-7-3"><rect
         style="fill:#ffffff;fill-opacity:1;stroke:none"
         id="rect6485-6-4-5"
         width="548"
         height="280"
         x="67.578148"
         y="187.65627" /></clipPath><clipPath
       clipPathUnits="userSpaceOnUse"
       id="clipPath6483-1-7"><rect
         style="fill:#ffffff;fill-opacity:1;stroke:none"
         id="rect6485-6-4"
         width="548"
         height="280"
         x="67.578148"
         y="187.65627" /></clipPath><clipPath
       clipPathUnits="userSpaceOnUse"
       id="clipPath6483-1"><rect
         style="fill:#ffffff;fill-opacity:1;stroke:none"
         id="rect6485-6"
         width="548"
         height="280"
         x="67.578148"
         y="187.65627" /></clipPath><clipPath
       clipPathUnits="userSpaceOnUse"
       id="clipPath6483"><rect
         style="fill:#ffffff;fill-opacity:1;stroke:none"
         id="rect6485"
         width="548"
         height="280"
         x="67.578148"
         y="187.65627" /></clipPath><clipPath
       id="clipPath22"
       clipPathUnits="userSpaceOnUse"><path
         id="path24"
         d="M 0,792 H 1224 V 0 H 0 Z" /></clipPath><clipPath
       clipPathUnits="userSpaceOnUse"
       id="clipPath3169"><rect
         style="fill:#f5f5f4;fill-opacity:1;stroke:#888a85;stroke-width:2;stroke-miterlimit:4;stroke-dasharray:none;stroke-dashoffset:0;stroke-opacity:1"
         id="rect3171"
         width="748.77557"
         height="428.80975"
         x="48.992397"
         y="105.34417" /></clipPath><marker
       orient="auto"
       refY="0"
       refX="0"
       id="Arrow2Lend"
       style="overflow:visible"><path
         id="path45126"
         style="font-size:12px;fill-rule:evenodd;stroke-width:0.625;stroke-linejoin:round"
         d="M 8.7185878,4.0337352 -2.2072895,0.01601326 8.7185884,-4.0017078 c -1.7454984,2.3720609 -1.7354408,5.6174519 -6e-7,8.035443 z"
         transform="matrix(-1.1,0,0,-1.1,-1.1,0)" /></marker><marker
       orient="auto"
       refY="0"
       refX="0"
       id="Arrow2Mend"
       style="overflow:visible"><path
         id="path45132"
         style="font-size:12px;fill-rule:evenodd;stroke-width:0.625;stroke-linejoin:round"
         d="M 8.7185878,4.0337352 -2.2072895,0.01601326 8.7185884,-4.0017078 c -1.7454984,2.3720609 -1.7354408,5.6174519 -6e-7,8.035443 z"
         transform="scale(-0.6)" /></marker><marker
       orient="auto"
       refY="0"
       refX="0"
       id="DotL"
       style="overflow:visible"><path
         id="path14326"
         d="m -2.5,-1 c 0,2.76 -2.24,5 -5,5 -2.76,0 -5,-2.24 -5,-5 0,-2.76 2.24,-5 5,-5 2.76,0 5,2.24 5,5 z"
         style="fill-rule:evenodd;stroke:#000000;stroke-width:1.00000003pt;marker-start:none;marker-end:none"
         transform="matrix(0.8,0,0,0.8,5.92,0.8)" /></marker><marker
       orient="auto"
       refY="0"
       refX="0"
       id="DotM"
       style="overflow:visible"><path
         id="path14329"
         d="m -2.5,-1 c 0,2.76 -2.24,5 -5,5 -2.76,0 -5,-2.24 -5,-5 0,-2.76 2.24,-5 5,-5 2.76,0 5,2.24 5,5 z"
         style="fill-rule:evenodd;stroke:#000000;stroke-width:1.00000003pt;marker-start:none;marker-end:none"
         transform="matrix(0.4,0,0,0.4,2.96,0.4)" /></marker></defs><flowRoot
     transform="translate(0,50)"
     style="font-style:normal;font-weight:normal;font-size:40px;line-height:125%;font-family:Sans;letter-spacing:0px;word-spacing:0px;fill:#000000;fill-opacity:1;stroke:none;stroke-width:1px;stroke-linecap:butt;stroke-linejoin:miter;stroke-opacity:1"
     id="flowRoot1196"
     xml:space="preserve"><flowRegion
       id="flowRegion1198"><rect
         y="110.07627"
         x="103.41437"
         height="41.100582"
         width="44.812893"
         id="rect1200" /></flowRegion><flowPara
       id="flowPara1202">By </flowPara></flowRoot><g
     transform="translate(0,50)"
     id="layer1"><g
       transform="matrix(1.1486012,0,0,1.1486012,-0.5842182,5.7838483)"
       id="g3286"><path
         id="path930"
         style="opacity:1;fill:#006069;fill-opacity:1;stroke:#000000;stroke-width:0.0739221;stroke-linecap:butt;stroke-linejoin:miter;stroke-miterlimit:4;stroke-dasharray:none;stroke-opacity:1"
         d="m 101.97979,66.730047 c 0,19.978541 -16.195798,36.174343 -36.174342,36.174343 -19.978532,0 -36.174343,-16.195802 -36.174343,-36.174343 0,-19.978536 16.195811,-36.174339 36.174343,-36.174339 19.978544,0 36.174342,16.195803 36.174342,36.174339 z M 57.62449,7.5470233 c -1.959903,0 -3.537722,1.5778235 -3.537722,3.5377177 v 8.991686 c -4.576126,1.136015 -8.980629,2.964392 -13.119021,5.453975 l -6.338406,-6.338401 c -1.385847,-1.385857 -3.625908,-1.385857 -5.011766,0 L 18.120009,30.689565 c -1.385861,1.385858 -1.385861,3.625908 0,5.011766 l 6.338401,6.338417 c -2.470107,4.126294 -4.18288,8.580737 -5.306573,13.119013 h -8.991691 c -1.9598946,0 -3.5377171,1.577821 -3.5377171,3.537704 v 16.214533 c 0,1.959898 1.5778225,3.537721 3.5377171,3.537721 h 8.844288 c 1.135824,4.580205 2.962294,8.977151 5.453976,13.119007 l -6.338401,6.338426 c -1.385861,1.385837 -1.385861,3.625888 0,5.011748 l 11.497566,11.49756 c 1.385858,1.38589 3.625919,1.38589 5.011766,0 l 6.338406,-6.3384 c 4.156457,2.50685 8.542089,4.17017 13.119021,5.30658 v 8.9917 c 0,1.9599 1.577819,3.53773 3.537722,3.53773 h 16.214546 c 1.959869,0 3.537688,-1.57783 3.537688,-3.53773 v -8.9917 c 4.586729,-1.13034 8.970622,-2.81773 13.119027,-5.30658 l 6.338394,6.3384 c 1.38587,1.38589 3.625925,1.38589 5.011795,0 l 11.49755,-11.49756 c 1.38586,-1.38586 1.38586,-3.625911 0,-5.011748 l -6.33841,-6.338426 c 2.49476,-4.134361 4.31538,-8.566603 5.45399,-13.119007 h 8.99169 c 1.95991,0 3.53771,-1.577823 3.53771,-3.537721 V 58.696476 c 0,-1.959894 -1.5778,-3.537715 -3.53771,-3.537715 h -8.99169 c -1.12916,-4.548524 -2.9875,-9.002016 -5.45399,-13.119013 l 6.33841,-6.338417 c 1.38586,-1.385858 1.38586,-3.625908 0,-5.011766 L 101.84594,19.192 c -1.38587,-1.385859 -3.625925,-1.385859 -5.011795,0 l -6.338394,6.338402 C 86.353539,23.044147 81.935087,21.204391 77.376724,20.076427 v -8.991686 c 0,-1.9598942 -1.577819,-3.5377177 -3.537688,-3.5377177 z"
         transform="translate(0,-50)" /><path
         id="path918"
         transform="matrix(0.8706242,0,0,0.8706242,2.266038,-48.566771)"
         d="M 72.980469,39.984375 A 35.01575,35.01575 0 0 0 37.964844,75 35.01575,35.01575 0 0 0 72.980469,110.01562 35.01575,35.01575 0 0 0 107.99805,75 35.01575,35.01575 0 0 0 72.980469,39.984375 Z m 1.517578,14.09375 h 3.800781 l -6.724609,41.84375 h -3.763672 z m -8.677735,3.8125 v 9.804687 l -12.625,7.345704 12.625,7.375 v 9.748046 l -20.773437,-13.0625 v -8.175781 z m 14.322266,0 20.773442,13.035156 v 8.175781 l -20.773442,13.0625 v -9.748046 l 12.625,-7.375 -12.625,-7.345704 z"
         style="opacity:1;fill:#00b8d4;fill-opacity:1;stroke:#000000;stroke-width:0.17376496;stroke-linecap:butt;stroke-linejoin:miter;stroke-miterlimit:4;stroke-dasharray:none;stroke-opacity:1" /></g></g></svg>