<?xml version="1.0" encoding="UTF-8" standalone="no"?>
<!-- Created with Inkscape (http://www.inkscape.org/) -->

<svg
   xmlns:dc="http://purl.org/dc/elements/1.1/"
   xmlns:cc="http://creativecommons.org/ns#"
   xmlns:rdf="http://www.w3.org/1999/02/22-rdf-syntax-ns#"
   xmlns:svg="http://www.w3.org/2000/svg"
   xmlns="http://www.w3.org/2000/svg"
   xmlns:xlink="http://www.w3.org/1999/xlink"
   version="1.2"
   width="1062.9921"
   height="531.49603"
   id="svg2">
  <defs
     id="defs4">
    <color-profile
       xlink:href="/home/stp-ip/.local/share/color/icc/ISOcoated_v2_300_eci.icc"
       name="ISO-Coated-v2-300---ECI-"
       id="color-profile3775" />
  </defs>
  <metadata
     id="metadata7">
    <rdf:RDF>
      <cc:Work
         rdf:about="">
        <dc:format>image/svg+xml</dc:format>
        <dc:type
           rdf:resource="http://purl.org/dc/dcmitype/StillImage" />
        <dc:title></dc:title>
      </cc:Work>
    </rdf:RDF>
  </metadata>
  <g
     id="layer2">
    <g
       transform="matrix(0.94049532,0,0,0.94049532,-3.6198128,-2.753683)"
       id="g4112"
       style="stroke:#000000;stroke-opacity:1">
      <path
         d="M 631.0625,79.40625 A 17.718307,17.718307 0 0 0 619,85.0625 L 387.59375,327.5 l -4.375,-43.5625 A 17.718307,17.718307 0 0 0 355.25,271.3125 l -17.8125,12.84375 -4.3125,-76.25 a 17.718307,17.718307 0 0 0 -30.375,-11.375 L 27.3125,479.125 a 17.723241,17.723241 0 1 0 25.375,24.75 L 300.03125,250.09375 303.875,318.4375 a 17.718307,17.718307 0 0 0 28.0625,13.375 l 19.09375,-13.75 5.125,51.3125 a 17.718307,17.718307 0 0 0 30.46875,10.46875 l 258,-270.3125 a 17.718307,17.718307 0 0 0 -13.5625,-30.125 z"
         id="path3844"
         style="font-size:medium;font-style:normal;font-variant:normal;font-weight:normal;font-stretch:normal;text-indent:0;text-align:start;text-decoration:none;line-height:normal;letter-spacing:normal;word-spacing:normal;text-transform:none;direction:ltr;block-progression:tb;writing-mode:lr-tb;text-anchor:start;baseline-shift:baseline;color:#000000;fill:#ffffff icc-color(ISO-Coated-v2-300---ECI-, 0, 0, 0, 0);fill-opacity:1;stroke:none;stroke-width:35.43307114;marker:none;visibility:visible;display:inline;overflow:visible;enable-background:accumulate;font-family:Sans;-inkscape-font-specification:Sans" />
      <path
         d="M 598.73537,151.3669 453.37628,13.100028 645.79845,-43.651205 z"
         transform="matrix(0.83151423,0,0,0.83151423,165.20181,59.954045)"
         id="path3866"
         style="fill:#ffffff icc-color(ISO-Coated-v2-300---ECI-, 0, 0, 0, 0);fill-opacity:1;stroke:none" />
    </g>
  </g>
  <g
     id="layer3"
     style="display:inline">
    <g
       transform="translate(0,-34)"
       id="flowRoot5553"
       style="font-size:40px;font-style:normal;font-weight:normal;line-height:125%;letter-spacing:0px;word-spacing:0px;fill:#ffffff icc-color(ISO-Coated-v2-300---ECI-, 0, 0, 0, 0);fill-opacity:1;stroke:none;font-family:Sans">
      <path
         d="m 224.07422,455.37938 c -7e-5,3.19011 -0.50463,5.68035 -1.51367,7.4707 -2.70189,4.85026 -10.87246,7.27539 -24.51172,7.27539 l -37.54883,0 c -2.50651,0 -3.75977,-1.2858 -3.75977,-3.85742 0,-1.75781 0.19531,-2.97851 0.58594,-3.66211 0.55338,-0.944 1.61133,-1.41601 3.17383,-1.41601 l 37.54883,0 c 10.12364,0 15.18549,-1.87174 15.18554,-5.61524 l 0,-5.12695 c -5e-5,-3.64581 -4.89914,-5.63149 -14.69726,-5.95703 l -18.01758,-0.58594 c -0.84638,-0.0325 -2.0508,-0.0814 -3.61328,-0.14649 -1.52997,-0.0976 -3.41799,-0.22783 -5.66406,-0.39062 -3.90627,-0.4557 -7.25913,-1.74151 -10.0586,-3.85742 -3.0599,-2.34372 -4.58984,-5.41989 -4.58984,-9.22852 l 0,-4.49219 c 0,-6.93354 3.84114,-11.5071 11.52344,-13.7207 3.67837,-0.94395 10.41664,-1.41596 20.21484,-1.41601 2.53903,5e-5 3.80856,1.66021 3.80859,4.98046 -3e-5,1.92063 -0.76501,3.12506 -2.29492,3.61329 -0.2279,0.13025 -1.77412,0.19536 -4.63867,0.19531 -11.84898,5e-5 -17.77345,2.08338 -17.77344,6.25 l 0,4.15039 c -1e-5,2.57165 2.21353,4.24808 6.64063,5.0293 0.84633,0.16279 2.06703,0.293 3.66211,0.39062 1.62758,0.0651 3.61325,0.0977 5.95703,0.0977 l 14.50195,0 c 6.93355,3e-5 12.40229,0.89521 16.40625,2.68554 6.31504,2.6042 9.47259,6.6081 9.47266,12.01172 l 0,5.32227"
         id="path4003"
         style="font-size:100px;font-variant:normal;font-stretch:normal;text-align:center;text-anchor:middle;fill:#ffffff icc-color(ISO-Coated-v2-300---ECI-, 0, 0, 0, 0);font-family:Neuropol;-inkscape-font-specification:Neuropol" />
      <path
         d="m 292.92187,447.51805 c -6e-5,2.83205 -0.96035,4.24807 -2.88085,4.24805 l -51.22071,0 0,0.34179 c -1e-5,4.4271 2.60415,7.27541 7.8125,8.54493 1.1393,0.26042 2.78318,0.47201 4.93164,0.63476 2.18097,0.13022 4.94789,0.19532 8.30078,0.19531 2.53903,10e-6 3.80856,1.59506 3.8086,4.78516 -4e-5,2.57162 -1.26957,3.85742 -3.8086,3.85742 -3.45055,0 -6.28258,-0.0326 -8.49609,-0.0976 -2.18101,-0.0326 -3.84117,-0.11394 -4.98047,-0.24414 -5.66408,-0.58594 -9.83074,-1.92058 -12.5,-4.00391 -3.8086,-2.96223 -5.71289,-6.4453 -5.71289,-10.44922 l 0,-17.23633 c 0,-5.40361 2.92968,-9.40751 8.78906,-12.01172 4.0039,-1.88797 9.30988,-2.83198 15.91797,-2.83203 l 19.23828,0 c 5.4036,5e-5 9.87951,0.89523 13.42774,2.68555 4.9153,2.27869 7.37298,5.71293 7.37304,10.30273 l 0,11.2793 m -10.05859,-4.6875 0,-5.76172 c -6e-5,-3.51559 -6.98247,-5.2734 -20.94726,-5.27344 -8.23571,4e-5 -13.88349,0.29301 -16.94336,0.87891 -4.32945,0.81384 -6.49416,2.40889 -6.49414,4.78516 l 0,5.37109 44.38476,0"
         id="path4005"
         style="font-size:100px;font-variant:normal;font-stretch:normal;text-align:center;text-anchor:middle;fill:#ffffff icc-color(ISO-Coated-v2-300---ECI-, 0, 0, 0, 0);font-family:Neuropol;-inkscape-font-specification:Neuropol" />
      <path
         d="m 361.86719,447.51805 c -7e-5,2.83205 -0.96035,4.24807 -2.88086,4.24805 l -51.22071,0 0,0.34179 c -1e-5,4.4271 2.60416,7.27541 7.8125,8.54493 1.13931,0.26042 2.78318,0.47201 4.93165,0.63476 2.18096,0.13022 4.94788,0.19532 8.30078,0.19531 2.53902,10e-6 3.80855,1.59506 3.80859,4.78516 -4e-5,2.57162 -1.26957,3.85742 -3.80859,3.85742 -3.45055,0 -6.28258,-0.0326 -8.4961,-0.0976 -2.18101,-0.0326 -3.84116,-0.11394 -4.98047,-0.24414 -5.66407,-0.58594 -9.83074,-1.92058 -12.5,-4.00391 -3.80859,-2.96223 -5.71289,-6.4453 -5.71289,-10.44922 l 0,-17.23633 c 0,-5.40361 2.92969,-9.40751 8.78907,-12.01172 4.00389,-1.88797 9.30987,-2.83198 15.91796,-2.83203 l 19.23829,0 c 5.40359,5e-5 9.8795,0.89523 13.42773,2.68555 4.9153,2.27869 7.37298,5.71293 7.37305,10.30273 l 0,11.2793 m -10.0586,-4.6875 0,-5.76172 c -5e-5,-3.51559 -6.98247,-5.2734 -20.94726,-5.27344 -8.23571,4e-5 -13.88349,0.29301 -16.94336,0.87891 -4.32944,0.81384 -6.49415,2.40889 -6.49414,4.78516 l 0,5.37109 44.38476,0"
         id="path4007"
         style="font-size:100px;font-variant:normal;font-stretch:normal;text-align:center;text-anchor:middle;fill:#ffffff icc-color(ISO-Coated-v2-300---ECI-, 0, 0, 0, 0);font-family:Neuropol;-inkscape-font-specification:Neuropol" />
      <path
         d="m 431.1543,415.63328 c -7e-5,2.57167 -1.2696,3.85748 -3.8086,3.85743 l -24.07226,0 0,46.77734 c -4e-5,2.57162 -1.2533,3.85742 -3.75977,3.85742 -2.53909,0 -4.11787,-0.0976 -4.73633,-0.29297 -1.52997,-0.45573 -2.29495,-1.64388 -2.29492,-3.56445 l 0,-46.77734 -23.87695,0 c -2.57162,5e-5 -3.85742,-1.28576 -3.85742,-3.85743 0,-1.75775 0.19531,-2.96218 0.58593,-3.61328 0.52084,-0.9114 1.61133,-1.36713 3.27149,-1.36718 l 58.74023,0 c 2.539,5e-5 3.80853,1.66021 3.8086,4.98046"
         id="path4009"
         style="font-size:100px;font-variant:normal;font-stretch:normal;text-align:center;text-anchor:middle;fill:#ffffff icc-color(ISO-Coated-v2-300---ECI-, 0, 0, 0, 0);font-family:Neuropol;-inkscape-font-specification:Neuropol" />
      <path
         d="m 501.32031,466.26805 c -7e-5,1.85547 -0.68366,3.02734 -2.05078,3.51563 -0.42324,0.22786 -1.90436,0.34179 -4.44336,0.34179 -2.53912,0 -3.80865,-1.2858 -3.80859,-3.85742 l 0,-27.58789 c -6e-5,-2.8971 -1.72532,-4.8014 -5.17578,-5.71289 -2.2787,-0.45569 -5.15956,-0.68356 -8.64258,-0.68359 l -30.27344,0 0,33.98437 c -10e-6,2.57162 -1.26954,3.85742 -3.80859,3.85742 -2.53907,0 -4.02019,-0.11393 -4.44336,-0.34179 -1.36719,-0.48829 -2.05079,-1.66016 -2.05078,-3.51563 l 0,-51.80664 c -10e-6,-1.88796 0.68359,-3.05984 2.05078,-3.51563 0.52082,-0.19525 2.00194,-0.29291 4.44336,-0.29296 2.53905,5e-5 3.80858,1.26958 3.80859,3.80859 l 0,9.22852 27.83203,0 c 8.23563,4e-5 14.01362,0.65108 17.33399,1.95312 6.15227,2.21358 9.22844,6.51045 9.22851,12.89063 l 0,27.73437"
         id="path4011"
         style="font-size:100px;font-variant:normal;font-stretch:normal;text-align:center;text-anchor:middle;fill:#ffffff icc-color(ISO-Coated-v2-300---ECI-, 0, 0, 0, 0);font-family:Neuropol;-inkscape-font-specification:Neuropol" />
      <path
         d="m 570.65625,447.51805 c -7e-5,2.83205 -0.96035,4.24807 -2.88086,4.24805 l -51.2207,0 0,0.34179 c -2e-5,4.4271 2.60415,7.27541 7.8125,8.54493 1.1393,0.26042 2.78318,0.47201 4.93164,0.63476 2.18096,0.13022 4.94788,0.19532 8.30078,0.19531 2.53903,10e-6 3.80856,1.59506 3.80859,4.78516 -3e-5,2.57162 -1.26956,3.85742 -3.80859,3.85742 -3.45055,0 -6.28258,-0.0326 -8.49609,-0.0976 -2.18102,-0.0326 -3.84117,-0.11394 -4.98047,-0.24414 -5.66408,-0.58594 -9.83074,-1.92058 -12.5,-4.00391 -3.8086,-2.96223 -5.7129,-6.4453 -5.71289,-10.44922 l 0,-17.23633 c -1e-5,-5.40361 2.92968,-9.40751 8.78906,-12.01172 4.00389,-1.88797 9.30987,-2.83198 15.91797,-2.83203 l 19.23828,0 c 5.40359,5e-5 9.8795,0.89523 13.42773,2.68555 4.9153,2.27869 7.37298,5.71293 7.37305,10.30273 l 0,11.2793 m -10.05859,-4.6875 0,-5.76172 c -6e-5,-3.51559 -6.98248,-5.2734 -20.94727,-5.27344 -8.2357,4e-5 -13.88348,0.29301 -16.94336,0.87891 -4.32944,0.81384 -6.49415,2.40889 -6.49414,4.78516 l 0,5.37109 44.38477,0"
         id="path4013"
         style="font-size:100px;font-variant:normal;font-stretch:normal;text-align:center;text-anchor:middle;fill:#ffffff icc-color(ISO-Coated-v2-300---ECI-, 0, 0, 0, 0);font-family:Neuropol;-inkscape-font-specification:Neuropol" />
      <path
         d="m 648.87891,433.11375 c -8e-5,5.95707 -2.96232,10.25394 -8.88672,12.89063 -4.58991,1.92059 -10.12376,2.88088 -16.60157,2.88086 l -37.64648,0 0,17.38281 c -10e-6,1.85547 -0.78126,3.02734 -2.34375,3.51563 -0.42319,0.22786 -1.98569,0.34179 -4.6875,0.34179 -2.53907,0 -3.8086,-1.2858 -3.80859,-3.85742 l 0,-51.80664 c -1e-5,-2.53901 1.26952,-3.80854 3.80859,-3.80859 l 45.16602,0 c 6.11973,5e-5 11.31178,0.84641 15.57617,2.53906 6.28248,2.3438 9.42375,5.90825 9.42383,10.69336 l 0,9.22851 m -10.74219,-0.34179 0,-8.10547 c -7e-5,-3.45047 -4.72011,-5.17573 -14.16016,-5.17578 l -38.23242,0 0,20.50781 38.28125,0 c 9.40749,3e-5 14.11126,-2.40882 14.11133,-7.22656"
         id="path4015"
         style="font-size:100px;font-variant:normal;font-stretch:normal;text-align:center;text-anchor:middle;fill:#ffffff icc-color(ISO-Coated-v2-300---ECI-, 0, 0, 0, 0);font-family:Neuropol;-inkscape-font-specification:Neuropol" />
      <path
         d="m 683.49805,428.18211 c -4e-5,2.57166 -1.52998,3.85746 -4.58985,3.85742 -0.4232,4e-5 -1.04169,-0.0162 -1.85547,-0.0488 -0.78127,-0.0651 -1.38348,-0.0976 -1.80664,-0.0977 -7.91017,4e-5 -11.86524,1.96944 -11.86523,5.9082 l 0,28.4668 c -10e-6,1.88802 -0.71616,3.07617 -2.14844,3.56445 -0.58595,0.19532 -2.08334,0.29297 -4.49219,0.29297 -2.44141,0 -3.66211,-1.30208 -3.66211,-3.90625 l 0,-28.41797 c 0,-6.11975 3.14128,-10.27014 9.42383,-12.45117 3.84113,-1.36714 9.55402,-2.05073 17.13867,-2.05078 2.57159,5e-5 3.85739,1.62765 3.85743,4.88281"
         id="path4017"
         style="font-size:100px;font-variant:normal;font-stretch:normal;text-align:center;text-anchor:middle;fill:#ffffff icc-color(ISO-Coated-v2-300---ECI-, 0, 0, 0, 0);font-family:Neuropol;-inkscape-font-specification:Neuropol" />
      <path
         d="m 749.80664,455.57469 c -7e-5,5.33855 -2.63678,9.2448 -7.91016,11.71875 -3.74354,1.88802 -8.724,2.83203 -14.9414,2.83203 l -17.13867,0 c -5.66409,0 -10.79104,-0.96028 -15.38086,-2.88086 -5.66407,-2.53905 -8.4961,-6.42902 -8.4961,-11.66992 l 0,-17.23633 c 0,-5.24085 2.81575,-9.2122 8.44727,-11.91406 4.1341,-2.08329 9.26105,-3.12495 15.38086,-3.125 l 17.1875,0 c 15.23431,5e-5 22.85149,4.98051 22.85156,14.94141 l 0,17.33398 m -10.44922,0 0,-18.01758 c -5e-5,-3.7109 -4.23182,-5.56637 -12.69531,-5.5664 l -16.74805,0 c -3.12502,3e-5 -5.9245,0.39066 -8.39844,1.17187 -3.51564,1.13936 -5.27345,2.86462 -5.27343,5.17578 l 0,17.23633 c -2e-5,2.21355 1.79035,3.84116 5.37109,4.88281 2.37628,0.68361 5.15948,1.0254 8.34961,1.02539 l 16.74805,0 c 2.70177,10e-6 5.25711,-0.39061 7.66601,-1.17187 3.32026,-1.07421 4.98042,-2.65298 4.98047,-4.73633"
         id="path4019"
         style="font-size:100px;font-variant:normal;font-stretch:normal;text-align:center;text-anchor:middle;fill:#ffffff icc-color(ISO-Coated-v2-300---ECI-, 0, 0, 0, 0);font-family:Neuropol;-inkscape-font-specification:Neuropol" />
      <path
         d="m 821.33984,468.56297 c -6e-5,5.37109 -3.35293,9.30989 -10.05859,11.81641 -4.45969,1.79035 -10.10747,2.68553 -16.94336,2.68555 l -4.29687,0 c -2.57165,-2e-5 -3.85746,-1.61134 -3.85743,-4.83399 -3e-5,-2.53907 1.28578,-3.8086 3.85743,-3.80859 l 7.4707,0 c 1.30204,-10e-6 3.74344,-0.47201 7.32422,-1.41602 3.71088,-1.07422 5.68028,-2.16471 5.9082,-3.27148 l -28.27148,0 c -6.6732,0 -12.15822,-0.83008 -16.45508,-2.49024 -6.25001,-2.37629 -9.37501,-6.36392 -9.375,-11.96289 l 0,-17.38281 c -10e-6,-9.83069 9.70051,-14.74605 29.10156,-14.74609 0.5208,4e-5 1.15557,0.0163 1.9043,0.0488 0.74866,5e-5 1.64384,0.0163 2.68554,0.0488 0.0325,0.0326 0.27666,0.0489 0.73243,0.0488 l 0.73242,0 1.2207,0 1.9043,0 c 6.15229,5e-5 11.71869,0.9115 16.69922,2.73438 6.4778,2.5391 9.71673,6.52673 9.71679,11.96289 l 0,30.5664 m -10.40039,-7.42187 0,-22.70508 c -5e-5,-2.31117 -1.90435,-4.0527 -5.71289,-5.22461 -3.09249,-0.84632 -5.97335,-1.26949 -8.64258,-1.26953 l -16.25976,0 c -3.84117,4e-5 -6.59182,0.19535 -8.25195,0.58594 -3.41799,0.84639 -5.12697,2.57165 -5.12696,5.17578 l 0,17.43164 c -10e-6,4.00391 5.11066,6.00587 15.33203,6.00586 l 28.66211,0"
         id="path4021"
         style="font-size:100px;font-variant:normal;font-stretch:normal;text-align:center;text-anchor:middle;fill:#ffffff icc-color(ISO-Coated-v2-300---ECI-, 0, 0, 0, 0);font-family:Neuropol;-inkscape-font-specification:Neuropol" />
      <path
         d="m 857.32617,428.18211 c -3e-5,2.57166 -1.52998,3.85746 -4.58984,3.85742 -0.42321,4e-5 -1.0417,-0.0162 -1.85547,-0.0488 -0.78128,-0.0651 -1.38349,-0.0976 -1.80664,-0.0977 -7.91017,4e-5 -11.86525,1.96944 -11.86524,5.9082 l 0,28.4668 c -10e-6,1.88802 -0.71615,3.07617 -2.14843,3.56445 -0.58595,0.19532 -2.08334,0.29297 -4.49219,0.29297 -2.44141,0 -3.66211,-1.30208 -3.66211,-3.90625 l 0,-28.41797 c 0,-6.11975 3.14127,-10.27014 9.42383,-12.45117 3.84113,-1.36714 9.55401,-2.05073 17.13867,-2.05078 2.57158,5e-5 3.85739,1.62765 3.85742,4.88281"
         id="path4023"
         style="font-size:100px;font-variant:normal;font-stretch:normal;text-align:center;text-anchor:middle;fill:#ffffff icc-color(ISO-Coated-v2-300---ECI-, 0, 0, 0, 0);font-family:Neuropol;-inkscape-font-specification:Neuropol" />
      <path
         d="m 924.66016,447.51805 c -7e-5,2.83205 -0.96036,4.24807 -2.88086,4.24805 l -51.22071,0 0,0.34179 c -10e-6,4.4271 2.60416,7.27541 7.8125,8.54493 1.13931,0.26042 2.78318,0.47201 4.93164,0.63476 2.18097,0.13022 4.94789,0.19532 8.30079,0.19531 2.53902,10e-6 3.80855,1.59506 3.80859,4.78516 -4e-5,2.57162 -1.26957,3.85742 -3.80859,3.85742 -3.45056,0 -6.28258,-0.0326 -8.4961,-0.0976 -2.18101,-0.0326 -3.84117,-0.11394 -4.98047,-0.24414 -5.66407,-0.58594 -9.83074,-1.92058 -12.5,-4.00391 -3.80859,-2.96223 -5.71289,-6.4453 -5.71289,-10.44922 l 0,-17.23633 c 0,-5.40361 2.92969,-9.40751 8.78906,-12.01172 4.0039,-1.88797 9.30988,-2.83198 15.91797,-2.83203 l 19.23828,0 c 5.4036,5e-5 9.87951,0.89523 13.42774,2.68555 4.9153,2.27869 7.37298,5.71293 7.37305,10.30273 l 0,11.2793 m -10.0586,-4.6875 0,-5.76172 c -5e-5,-3.51559 -6.98247,-5.2734 -20.94726,-5.27344 -8.23571,4e-5 -13.88349,0.29301 -16.94336,0.87891 -4.32944,0.81384 -6.49416,2.40889 -6.49414,4.78516 l 0,5.37109 44.38476,0"
         id="path4025"
         style="font-size:100px;font-variant:normal;font-stretch:normal;text-align:center;text-anchor:middle;fill:#ffffff icc-color(ISO-Coated-v2-300---ECI-, 0, 0, 0, 0);font-family:Neuropol;-inkscape-font-specification:Neuropol" />
      <path
         d="m 988.33203,456.74657 c -6e-5,8.91927 -6.80344,13.3789 -20.41016,13.3789 l -34.86328,0 c -2.53906,0 -3.80859,-1.2858 -3.80859,-3.85742 0,-3.1901 1.26953,-4.78515 3.80859,-4.78516 l 34.91211,0 c 6.44527,10e-6 9.66792,-1.57876 9.66797,-4.73632 l 0,-1.75782 c -5e-5,-2.83201 -2.92973,-4.24802 -8.78906,-4.24804 l -16.74805,0 c -15.39714,2e-5 -23.0957,-4.29686 -23.0957,-12.89063 l 0,-2.53906 c 0,-5.69658 3.87369,-9.34241 11.62109,-10.9375 1.56249,-0.35803 3.84113,-0.61844 6.83594,-0.78125 3.02732,-0.19527 6.81963,-0.29292 11.37695,-0.29297 2.57158,5e-5 3.85739,1.62765 3.85743,4.88281 -4e-5,2.5391 -1.28585,3.80863 -3.85743,3.8086 l -7.42187,0 c -3.87372,3e-5 -6.20119,0.0489 -6.98242,0.14648 -3.41799,0.45577 -5.12697,1.51371 -5.12696,3.17383 l 0,2.44141 c -10e-6,2.7995 4.28059,4.19924 12.8418,4.19921 l 17.08984,0 c 12.72781,3e-5 19.09174,4.21552 19.0918,12.64649 l 0,2.14844"
         id="path4027"
         style="font-size:100px;font-variant:normal;font-stretch:normal;text-align:center;text-anchor:middle;fill:#ffffff icc-color(ISO-Coated-v2-300---ECI-, 0, 0, 0, 0);font-family:Neuropol;-inkscape-font-specification:Neuropol" />
      <path
         d="m 1051.8086,456.74657 c -10e-5,8.91927 -6.8034,13.3789 -20.4102,13.3789 l -34.86324,0 c -2.53907,0 -3.8086,-1.2858 -3.8086,-3.85742 0,-3.1901 1.26953,-4.78515 3.8086,-4.78516 l 34.91214,0 c 6.4452,10e-6 9.6679,-1.57876 9.6679,-4.73632 l 0,-1.75782 c 0,-2.83201 -2.9297,-4.24802 -8.789,-4.24804 l -16.7481,0 c -15.3971,2e-5 -23.09568,-4.29686 -23.09568,-12.89063 l 0,-2.53906 c 0,-5.69658 3.87369,-9.34241 11.62108,-10.9375 1.5625,-0.35803 3.8411,-0.61844 6.836,-0.78125 3.0273,-0.19527 6.8196,-0.29292 11.3769,-0.29297 2.5716,5e-5 3.8574,1.62765 3.8574,4.88281 0,2.5391 -1.2858,3.80863 -3.8574,3.8086 l -7.4219,0 c -3.8737,3e-5 -6.2012,0.0489 -6.9824,0.14648 -3.418,0.45577 -5.127,1.51371 -5.1269,3.17383 l 0,2.44141 c -10e-5,2.7995 4.2805,4.19924 12.8418,4.19921 l 17.0898,0 c 12.7278,3e-5 19.0917,4.21552 19.0918,12.64649 l 0,2.14844"
         id="path4029"
         style="font-size:100px;font-variant:normal;font-stretch:normal;text-align:center;text-anchor:middle;fill:#ffffff icc-color(ISO-Coated-v2-300---ECI-, 0, 0, 0, 0);font-family:Neuropol;-inkscape-font-specification:Neuropol" />
    </g>
  </g>
  <g
     id="layer4"
     style="display:inline" />
  <g
     id="layer1"
     style="display:none">
    <g
       transform="translate(-22.627417,-8.4852814)"
       id="flowRoot3032"
       style="font-size:40px;font-style:normal;font-weight:normal;line-height:125%;letter-spacing:0px;word-spacing:0px;fill:#131413 icc-color(ISO-Coated-v2-300---ECI-, 0, 0, 0, 1);fill-opacity:1;stroke:none;font-family:Sans">
      <flowRoot
         transform="translate(24.439917,-1.991649)"
         id="flowRoot5290"
         xml:space="preserve"
         style="font-size:40px;font-style:normal;font-weight:normal;line-height:125%;letter-spacing:0px;word-spacing:0px;fill:#131413 icc-color(ISO-Coated-v2-300---ECI-, 0, 0, 0, 1);fill-opacity:1;stroke:none;font-family:Sans"><flowRegion
           id="flowRegion5292"><rect
             width="460.00372"
             height="222.82426"
             x="38.183765"
             y="59.148705"
             id="rect5294"
             style="fill:#131413 icc-color(ISO-Coated-v2-300---ECI-, 0, 0, 0, 1);fill-opacity:1" /></flowRegion><flowPara
           id="flowPara5532"
           style="font-size:65px;font-style:normal;font-variant:normal;font-weight:normal;font-stretch:normal;fill:#131413 icc-color(ISO-Coated-v2-300---ECI-, 0, 0, 0, 1);fill-opacity:1;font-family:Neuropol;-inkscape-font-specification:Neuropol">Dev</flowPara></flowRoot>    </g>
  </g>
</svg>
